<svg xmlns="http://www.w3.org/2000/svg" xmlns:xlink="http://www.w3.org/1999/xlink" width="350" zoomAndPan="magnify"
    viewBox="0 0 262.5 44.999999" height="60" preserveAspectRatio="xMidYMid meet" version="1.0">
    <defs>
        <g />
    </defs>
    <g fill="#ff00ff" fill-opacity="1">
        <g transform="translate(61.781584, 29.049986)">
            <g>
                <path
                    d="M 16.5625 -0.734375 C 14.289062 1.003906 11.984375 1.875 9.640625 1.875 C 7.171875 1.875 5.375 0.960938 4.25 -0.859375 C 3.445312 -2.191406 3.046875 -3.675781 3.046875 -5.3125 C 3.046875 -6.945312 3.34375 -8.570312 3.9375 -10.1875 C 2.5 -11.15625 1.710938 -12.453125 1.578125 -14.078125 C 1.535156 -14.378906 1.515625 -14.6875 1.515625 -15 C 1.515625 -17.457031 2.570312 -19.519531 4.6875 -21.1875 C 6.9375 -22.957031 9.601562 -23.84375 12.6875 -23.84375 C 15.769531 -23.84375 18.320312 -22.984375 20.34375 -21.265625 C 22.363281 -19.546875 23.375 -17.097656 23.375 -13.921875 C 23.375 -13.710938 23.375 -13.503906 23.375 -13.296875 C 25.425781 -14.660156 26.757812 -15.957031 27.375 -17.1875 C 27.476562 -17.40625 27.613281 -17.5 27.78125 -17.46875 C 27.945312 -17.445312 28.03125 -17.382812 28.03125 -17.28125 C 28.03125 -17.175781 27.96875 -17.03125 27.84375 -16.84375 C 26.625 -14.9375 25.09375 -13.394531 23.25 -12.21875 C 23.164062 -11.257812 22.898438 -10.101562 22.453125 -8.75 C 22.015625 -7.394531 21.269531 -5.992188 20.21875 -4.546875 C 19.175781 -3.097656 17.957031 -1.828125 16.5625 -0.734375 Z M 21.5625 -13.953125 C 21.5625 -17.421875 20.453125 -19.988281 18.234375 -21.65625 C 16.753906 -22.757812 15.03125 -23.3125 13.0625 -23.3125 C 12.488281 -23.3125 11.898438 -23.257812 11.296875 -23.15625 C 8.796875 -22.789062 6.753906 -21.753906 5.171875 -20.046875 C 3.835938 -18.566406 3.171875 -16.894531 3.171875 -15.03125 C 3.171875 -13.40625 3.613281 -12.210938 4.5 -11.453125 C 5.300781 -13.160156 6.476562 -14.882812 8.03125 -16.625 C 9.738281 -18.539062 11.535156 -19.710938 13.421875 -20.140625 C 13.734375 -20.203125 14.128906 -20.234375 14.609375 -20.234375 C 15.097656 -20.234375 15.660156 -20.035156 16.296875 -19.640625 C 16.429688 -19.566406 16.503906 -19.488281 16.515625 -19.40625 C 16.523438 -19.320312 16.476562 -19.257812 16.375 -19.21875 C 16.28125 -19.175781 16.128906 -19.191406 15.921875 -19.265625 C 15.710938 -19.335938 15.367188 -19.375 14.890625 -19.375 C 14.410156 -19.375 13.71875 -19.125 12.8125 -18.625 C 11.90625 -18.132812 10.992188 -17.367188 10.078125 -16.328125 C 8.242188 -14.253906 6.90625 -12.28125 6.0625 -10.40625 C 7.351562 -9.8125 8.90625 -9.515625 10.71875 -9.515625 C 11.519531 -9.515625 12.367188 -9.566406 13.265625 -9.671875 C 16.203125 -10.054688 18.945312 -10.9375 21.5 -12.3125 C 21.539062 -12.875 21.5625 -13.421875 21.5625 -13.953125 Z M 21.3125 -11.234375 C 17.882812 -9.410156 14.269531 -8.5 10.46875 -8.5 C 8.625 -8.5 7.003906 -8.773438 5.609375 -9.328125 C 4.972656 -7.671875 4.65625 -6.234375 4.65625 -5.015625 C 4.65625 -2.179688 5.503906 -0.34375 7.203125 0.5 C 8.128906 0.925781 9.046875 1.140625 9.953125 1.140625 C 10.867188 1.140625 11.757812 0.941406 12.625 0.546875 C 14.4375 -0.265625 16.054688 -1.539062 17.484375 -3.28125 C 18.921875 -5.03125 20.007812 -6.953125 20.75 -9.046875 C 21.039062 -9.867188 21.226562 -10.597656 21.3125 -11.234375 Z M 21.3125 -11.234375 " />
            </g>
        </g>
    </g>
    <g fill="#00ffff" fill-opacity="1">
        <g transform="translate(62.872196, 29.535557)">
            <g>
                <path
                    d="M 16.5625 -0.734375 C 14.289062 1.003906 11.984375 1.875 9.640625 1.875 C 7.171875 1.875 5.375 0.960938 4.25 -0.859375 C 3.445312 -2.191406 3.046875 -3.675781 3.046875 -5.3125 C 3.046875 -6.945312 3.34375 -8.570312 3.9375 -10.1875 C 2.5 -11.15625 1.710938 -12.453125 1.578125 -14.078125 C 1.535156 -14.378906 1.515625 -14.6875 1.515625 -15 C 1.515625 -17.457031 2.570312 -19.519531 4.6875 -21.1875 C 6.9375 -22.957031 9.601562 -23.84375 12.6875 -23.84375 C 15.769531 -23.84375 18.320312 -22.984375 20.34375 -21.265625 C 22.363281 -19.546875 23.375 -17.097656 23.375 -13.921875 C 23.375 -13.710938 23.375 -13.503906 23.375 -13.296875 C 25.425781 -14.660156 26.757812 -15.957031 27.375 -17.1875 C 27.476562 -17.40625 27.613281 -17.5 27.78125 -17.46875 C 27.945312 -17.445312 28.03125 -17.382812 28.03125 -17.28125 C 28.03125 -17.175781 27.96875 -17.03125 27.84375 -16.84375 C 26.625 -14.9375 25.09375 -13.394531 23.25 -12.21875 C 23.164062 -11.257812 22.898438 -10.101562 22.453125 -8.75 C 22.015625 -7.394531 21.269531 -5.992188 20.21875 -4.546875 C 19.175781 -3.097656 17.957031 -1.828125 16.5625 -0.734375 Z M 21.5625 -13.953125 C 21.5625 -17.421875 20.453125 -19.988281 18.234375 -21.65625 C 16.753906 -22.757812 15.03125 -23.3125 13.0625 -23.3125 C 12.488281 -23.3125 11.898438 -23.257812 11.296875 -23.15625 C 8.796875 -22.789062 6.753906 -21.753906 5.171875 -20.046875 C 3.835938 -18.566406 3.171875 -16.894531 3.171875 -15.03125 C 3.171875 -13.40625 3.613281 -12.210938 4.5 -11.453125 C 5.300781 -13.160156 6.476562 -14.882812 8.03125 -16.625 C 9.738281 -18.539062 11.535156 -19.710938 13.421875 -20.140625 C 13.734375 -20.203125 14.128906 -20.234375 14.609375 -20.234375 C 15.097656 -20.234375 15.660156 -20.035156 16.296875 -19.640625 C 16.429688 -19.566406 16.503906 -19.488281 16.515625 -19.40625 C 16.523438 -19.320312 16.476562 -19.257812 16.375 -19.21875 C 16.28125 -19.175781 16.128906 -19.191406 15.921875 -19.265625 C 15.710938 -19.335938 15.367188 -19.375 14.890625 -19.375 C 14.410156 -19.375 13.71875 -19.125 12.8125 -18.625 C 11.90625 -18.132812 10.992188 -17.367188 10.078125 -16.328125 C 8.242188 -14.253906 6.90625 -12.28125 6.0625 -10.40625 C 7.351562 -9.8125 8.90625 -9.515625 10.71875 -9.515625 C 11.519531 -9.515625 12.367188 -9.566406 13.265625 -9.671875 C 16.203125 -10.054688 18.945312 -10.9375 21.5 -12.3125 C 21.539062 -12.875 21.5625 -13.421875 21.5625 -13.953125 Z M 21.3125 -11.234375 C 17.882812 -9.410156 14.269531 -8.5 10.46875 -8.5 C 8.625 -8.5 7.003906 -8.773438 5.609375 -9.328125 C 4.972656 -7.671875 4.65625 -6.234375 4.65625 -5.015625 C 4.65625 -2.179688 5.503906 -0.34375 7.203125 0.5 C 8.128906 0.925781 9.046875 1.140625 9.953125 1.140625 C 10.867188 1.140625 11.757812 0.941406 12.625 0.546875 C 14.4375 -0.265625 16.054688 -1.539062 17.484375 -3.28125 C 18.921875 -5.03125 20.007812 -6.953125 20.75 -9.046875 C 21.039062 -9.867188 21.226562 -10.597656 21.3125 -11.234375 Z M 21.3125 -11.234375 " />
            </g>
        </g>
    </g>
    <g fill="#ff1616" fill-opacity="1">
        <g transform="translate(62.32689, 29.292771)">
            <g>
                <path
                    d="M 16.5625 -0.734375 C 14.289062 1.003906 11.984375 1.875 9.640625 1.875 C 7.171875 1.875 5.375 0.960938 4.25 -0.859375 C 3.445312 -2.191406 3.046875 -3.675781 3.046875 -5.3125 C 3.046875 -6.945312 3.34375 -8.570312 3.9375 -10.1875 C 2.5 -11.15625 1.710938 -12.453125 1.578125 -14.078125 C 1.535156 -14.378906 1.515625 -14.6875 1.515625 -15 C 1.515625 -17.457031 2.570312 -19.519531 4.6875 -21.1875 C 6.9375 -22.957031 9.601562 -23.84375 12.6875 -23.84375 C 15.769531 -23.84375 18.320312 -22.984375 20.34375 -21.265625 C 22.363281 -19.546875 23.375 -17.097656 23.375 -13.921875 C 23.375 -13.710938 23.375 -13.503906 23.375 -13.296875 C 25.425781 -14.660156 26.757812 -15.957031 27.375 -17.1875 C 27.476562 -17.40625 27.613281 -17.5 27.78125 -17.46875 C 27.945312 -17.445312 28.03125 -17.382812 28.03125 -17.28125 C 28.03125 -17.175781 27.96875 -17.03125 27.84375 -16.84375 C 26.625 -14.9375 25.09375 -13.394531 23.25 -12.21875 C 23.164062 -11.257812 22.898438 -10.101562 22.453125 -8.75 C 22.015625 -7.394531 21.269531 -5.992188 20.21875 -4.546875 C 19.175781 -3.097656 17.957031 -1.828125 16.5625 -0.734375 Z M 21.5625 -13.953125 C 21.5625 -17.421875 20.453125 -19.988281 18.234375 -21.65625 C 16.753906 -22.757812 15.03125 -23.3125 13.0625 -23.3125 C 12.488281 -23.3125 11.898438 -23.257812 11.296875 -23.15625 C 8.796875 -22.789062 6.753906 -21.753906 5.171875 -20.046875 C 3.835938 -18.566406 3.171875 -16.894531 3.171875 -15.03125 C 3.171875 -13.40625 3.613281 -12.210938 4.5 -11.453125 C 5.300781 -13.160156 6.476562 -14.882812 8.03125 -16.625 C 9.738281 -18.539062 11.535156 -19.710938 13.421875 -20.140625 C 13.734375 -20.203125 14.128906 -20.234375 14.609375 -20.234375 C 15.097656 -20.234375 15.660156 -20.035156 16.296875 -19.640625 C 16.429688 -19.566406 16.503906 -19.488281 16.515625 -19.40625 C 16.523438 -19.320312 16.476562 -19.257812 16.375 -19.21875 C 16.28125 -19.175781 16.128906 -19.191406 15.921875 -19.265625 C 15.710938 -19.335938 15.367188 -19.375 14.890625 -19.375 C 14.410156 -19.375 13.71875 -19.125 12.8125 -18.625 C 11.90625 -18.132812 10.992188 -17.367188 10.078125 -16.328125 C 8.242188 -14.253906 6.90625 -12.28125 6.0625 -10.40625 C 7.351562 -9.8125 8.90625 -9.515625 10.71875 -9.515625 C 11.519531 -9.515625 12.367188 -9.566406 13.265625 -9.671875 C 16.203125 -10.054688 18.945312 -10.9375 21.5 -12.3125 C 21.539062 -12.875 21.5625 -13.421875 21.5625 -13.953125 Z M 21.3125 -11.234375 C 17.882812 -9.410156 14.269531 -8.5 10.46875 -8.5 C 8.625 -8.5 7.003906 -8.773438 5.609375 -9.328125 C 4.972656 -7.671875 4.65625 -6.234375 4.65625 -5.015625 C 4.65625 -2.179688 5.503906 -0.34375 7.203125 0.5 C 8.128906 0.925781 9.046875 1.140625 9.953125 1.140625 C 10.867188 1.140625 11.757812 0.941406 12.625 0.546875 C 14.4375 -0.265625 16.054688 -1.539062 17.484375 -3.28125 C 18.921875 -5.03125 20.007812 -6.953125 20.75 -9.046875 C 21.039062 -9.867188 21.226562 -10.597656 21.3125 -11.234375 Z M 21.3125 -11.234375 " />
            </g>
        </g>
    </g>
    <g fill="#ff00ff" fill-opacity="1">
        <g transform="translate(87.035487, 29.049986)">
            <g>
                <path
                    d="M 11.0625 -10.09375 C 8.53125 -5.664062 7.265625 -2.773438 7.265625 -1.421875 C 7.265625 -0.878906 7.460938 -0.609375 7.859375 -0.609375 C 8.898438 -0.609375 10.304688 -2.382812 12.078125 -5.9375 C 12.191406 -6.226562 12.3125 -6.34375 12.4375 -6.28125 C 12.5625 -6.21875 12.625 -6.132812 12.625 -6.03125 C 12.625 -5.925781 12.582031 -5.804688 12.5 -5.671875 C 11.414062 -3.472656 10.5 -1.957031 9.75 -1.125 C 9 -0.289062 8.25 0.125 7.5 0.125 C 6.75 0.125 6.179688 -0.160156 5.796875 -0.734375 C 5.585938 -1.003906 5.484375 -1.367188 5.484375 -1.828125 C 5.484375 -2.296875 5.582031 -2.859375 5.78125 -3.515625 C 5.988281 -4.171875 6.554688 -5.238281 7.484375 -6.71875 C 7.710938 -7.082031 7.828125 -7.375 7.828125 -7.59375 C 7.828125 -7.8125 7.648438 -7.921875 7.296875 -7.921875 C 6.953125 -7.921875 6.285156 -7.457031 5.296875 -6.53125 C 3.816406 -5.175781 2.390625 -3.144531 1.015625 -0.4375 C 0.890625 -0.226562 0.75 -0.0976562 0.59375 -0.046875 C 0.445312 0.00390625 0.148438 0.0390625 -0.296875 0.0625 C -0.753906 0.0820312 -1.054688 0.132812 -1.203125 0.21875 C -0.867188 -0.4375 -0.222656 -1.78125 0.734375 -3.8125 C 2.460938 -7.40625 3.59375 -9.460938 4.125 -9.984375 C 4.375 -10.222656 4.710938 -10.34375 5.140625 -10.34375 C 5.222656 -10.34375 5.429688 -10.3125 5.765625 -10.25 C 6.109375 -10.1875 6.363281 -10.175781 6.53125 -10.21875 C 5.769531 -9.8125 4.523438 -7.882812 2.796875 -4.4375 C 3.765625 -5.625 4.644531 -6.570312 5.4375 -7.28125 C 6.226562 -7.988281 7.175781 -8.644531 8.28125 -9.25 C 9.394531 -9.851562 10.207031 -10.15625 10.71875 -10.15625 C 10.84375 -10.15625 10.957031 -10.132812 11.0625 -10.09375 Z M 11.0625 -10.09375 " />
            </g>
        </g>
    </g>
    <g fill="#00ffff" fill-opacity="1">
        <g transform="translate(88.126099, 29.535557)">
            <g>
                <path
                    d="M 11.0625 -10.09375 C 8.53125 -5.664062 7.265625 -2.773438 7.265625 -1.421875 C 7.265625 -0.878906 7.460938 -0.609375 7.859375 -0.609375 C 8.898438 -0.609375 10.304688 -2.382812 12.078125 -5.9375 C 12.191406 -6.226562 12.3125 -6.34375 12.4375 -6.28125 C 12.5625 -6.21875 12.625 -6.132812 12.625 -6.03125 C 12.625 -5.925781 12.582031 -5.804688 12.5 -5.671875 C 11.414062 -3.472656 10.5 -1.957031 9.75 -1.125 C 9 -0.289062 8.25 0.125 7.5 0.125 C 6.75 0.125 6.179688 -0.160156 5.796875 -0.734375 C 5.585938 -1.003906 5.484375 -1.367188 5.484375 -1.828125 C 5.484375 -2.296875 5.582031 -2.859375 5.78125 -3.515625 C 5.988281 -4.171875 6.554688 -5.238281 7.484375 -6.71875 C 7.710938 -7.082031 7.828125 -7.375 7.828125 -7.59375 C 7.828125 -7.8125 7.648438 -7.921875 7.296875 -7.921875 C 6.953125 -7.921875 6.285156 -7.457031 5.296875 -6.53125 C 3.816406 -5.175781 2.390625 -3.144531 1.015625 -0.4375 C 0.890625 -0.226562 0.75 -0.0976562 0.59375 -0.046875 C 0.445312 0.00390625 0.148438 0.0390625 -0.296875 0.0625 C -0.753906 0.0820312 -1.054688 0.132812 -1.203125 0.21875 C -0.867188 -0.4375 -0.222656 -1.78125 0.734375 -3.8125 C 2.460938 -7.40625 3.59375 -9.460938 4.125 -9.984375 C 4.375 -10.222656 4.710938 -10.34375 5.140625 -10.34375 C 5.222656 -10.34375 5.429688 -10.3125 5.765625 -10.25 C 6.109375 -10.1875 6.363281 -10.175781 6.53125 -10.21875 C 5.769531 -9.8125 4.523438 -7.882812 2.796875 -4.4375 C 3.765625 -5.625 4.644531 -6.570312 5.4375 -7.28125 C 6.226562 -7.988281 7.175781 -8.644531 8.28125 -9.25 C 9.394531 -9.851562 10.207031 -10.15625 10.71875 -10.15625 C 10.84375 -10.15625 10.957031 -10.132812 11.0625 -10.09375 Z M 11.0625 -10.09375 " />
            </g>
        </g>
    </g>
    <g fill="#ff5757" fill-opacity="1">
        <g transform="translate(87.580793, 29.292771)">
            <g>
                <path
                    d="M 11.0625 -10.09375 C 8.53125 -5.664062 7.265625 -2.773438 7.265625 -1.421875 C 7.265625 -0.878906 7.460938 -0.609375 7.859375 -0.609375 C 8.898438 -0.609375 10.304688 -2.382812 12.078125 -5.9375 C 12.191406 -6.226562 12.3125 -6.34375 12.4375 -6.28125 C 12.5625 -6.21875 12.625 -6.132812 12.625 -6.03125 C 12.625 -5.925781 12.582031 -5.804688 12.5 -5.671875 C 11.414062 -3.472656 10.5 -1.957031 9.75 -1.125 C 9 -0.289062 8.25 0.125 7.5 0.125 C 6.75 0.125 6.179688 -0.160156 5.796875 -0.734375 C 5.585938 -1.003906 5.484375 -1.367188 5.484375 -1.828125 C 5.484375 -2.296875 5.582031 -2.859375 5.78125 -3.515625 C 5.988281 -4.171875 6.554688 -5.238281 7.484375 -6.71875 C 7.710938 -7.082031 7.828125 -7.375 7.828125 -7.59375 C 7.828125 -7.8125 7.648438 -7.921875 7.296875 -7.921875 C 6.953125 -7.921875 6.285156 -7.457031 5.296875 -6.53125 C 3.816406 -5.175781 2.390625 -3.144531 1.015625 -0.4375 C 0.890625 -0.226562 0.75 -0.0976562 0.59375 -0.046875 C 0.445312 0.00390625 0.148438 0.0390625 -0.296875 0.0625 C -0.753906 0.0820312 -1.054688 0.132812 -1.203125 0.21875 C -0.867188 -0.4375 -0.222656 -1.78125 0.734375 -3.8125 C 2.460938 -7.40625 3.59375 -9.460938 4.125 -9.984375 C 4.375 -10.222656 4.710938 -10.34375 5.140625 -10.34375 C 5.222656 -10.34375 5.429688 -10.3125 5.765625 -10.25 C 6.109375 -10.1875 6.363281 -10.175781 6.53125 -10.21875 C 5.769531 -9.8125 4.523438 -7.882812 2.796875 -4.4375 C 3.765625 -5.625 4.644531 -6.570312 5.4375 -7.28125 C 6.226562 -7.988281 7.175781 -8.644531 8.28125 -9.25 C 9.394531 -9.851562 10.207031 -10.15625 10.71875 -10.15625 C 10.84375 -10.15625 10.957031 -10.132812 11.0625 -10.09375 Z M 11.0625 -10.09375 " />
            </g>
        </g>
    </g>
    <g fill="#ff00ff" fill-opacity="1">
        <g transform="translate(100.242517, 29.049986)">
            <g>
                <path
                    d="M 4.40625 -0.578125 C 4.675781 -0.546875 4.859375 -0.53125 4.953125 -0.53125 C 5.773438 -0.53125 6.585938 -1.007812 7.390625 -1.96875 C 7.816406 -2.5 8.585938 -3.84375 9.703125 -6 C 9.742188 -6.101562 9.816406 -6.15625 9.921875 -6.15625 C 10.097656 -6.175781 10.1875 -6.101562 10.1875 -5.9375 C 10.1875 -5.894531 10.140625 -5.773438 10.046875 -5.578125 C 9.960938 -5.390625 9.878906 -5.195312 9.796875 -5 C 9.710938 -4.8125 9.578125 -4.53125 9.390625 -4.15625 C 9.203125 -3.789062 9.039062 -3.492188 8.90625 -3.265625 C 8.78125 -3.035156 8.613281 -2.753906 8.40625 -2.421875 C 8.195312 -2.097656 7.992188 -1.84375 7.796875 -1.65625 L 7.140625 -0.984375 C 6.796875 -0.640625 6.382812 -0.394531 5.90625 -0.25 C 5.15625 0 4.421875 0.0195312 3.703125 -0.1875 C 3.222656 0.0195312 2.800781 0.125 2.4375 0.125 C 0.976562 0.125 0.09375 -0.445312 -0.21875 -1.59375 C -0.28125 -1.863281 -0.3125 -2.1875 -0.3125 -2.5625 C -0.3125 -2.945312 -0.179688 -3.3125 0.078125 -3.65625 C 0.335938 -4.007812 0.609375 -4.195312 0.890625 -4.21875 C 1.941406 -6.207031 2.835938 -8.003906 3.578125 -9.609375 C 4.398438 -11.347656 5.351562 -12.21875 6.4375 -12.21875 C 6.726562 -12.21875 7.007812 -12.148438 7.28125 -12.015625 C 7.5625 -11.890625 7.664062 -11.742188 7.59375 -11.578125 C 7.519531 -11.410156 7.367188 -11.378906 7.140625 -11.484375 C 6.921875 -11.585938 6.726562 -11.640625 6.5625 -11.640625 C 6.394531 -11.640625 6.25 -11.609375 6.125 -11.546875 C 5.425781 -11.222656 5.078125 -10.515625 5.078125 -9.421875 C 5.078125 -8.847656 5.160156 -8.375 5.328125 -8 C 5.492188 -7.632812 5.675781 -7.238281 5.875 -6.8125 C 6.351562 -5.738281 6.59375 -4.863281 6.59375 -4.1875 C 6.59375 -3.507812 6.375 -2.84375 5.9375 -2.1875 C 5.507812 -1.53125 5 -0.992188 4.40625 -0.578125 Z M 3.359375 -0.796875 C 4.265625 -1.492188 4.71875 -2.625 4.71875 -4.1875 C 4.71875 -4.820312 4.644531 -5.691406 4.5 -6.796875 C 4.351562 -7.910156 4.28125 -8.660156 4.28125 -9.046875 C 4.28125 -9.441406 4.289062 -9.710938 4.3125 -9.859375 C 2.75 -6.734375 1.785156 -4.832031 1.421875 -4.15625 C 1.847656 -4.15625 2.0625 -3.847656 2.0625 -3.234375 C 2.0625 -2.023438 2.492188 -1.210938 3.359375 -0.796875 Z M 1.046875 -1.625 C 1.046875 -1.507812 1.054688 -1.378906 1.078125 -1.234375 C 1.242188 -0.679688 1.625 -0.40625 2.21875 -0.40625 C 2.46875 -0.40625 2.671875 -0.445312 2.828125 -0.53125 C 2.066406 -1 1.660156 -1.765625 1.609375 -2.828125 C 1.234375 -2.460938 1.046875 -2.0625 1.046875 -1.625 Z M 1.046875 -1.625 " />
            </g>
        </g>
    </g>
    <g fill="#00ffff" fill-opacity="1">
        <g transform="translate(101.333129, 29.535557)">
            <g>
                <path
                    d="M 4.40625 -0.578125 C 4.675781 -0.546875 4.859375 -0.53125 4.953125 -0.53125 C 5.773438 -0.53125 6.585938 -1.007812 7.390625 -1.96875 C 7.816406 -2.5 8.585938 -3.84375 9.703125 -6 C 9.742188 -6.101562 9.816406 -6.15625 9.921875 -6.15625 C 10.097656 -6.175781 10.1875 -6.101562 10.1875 -5.9375 C 10.1875 -5.894531 10.140625 -5.773438 10.046875 -5.578125 C 9.960938 -5.390625 9.878906 -5.195312 9.796875 -5 C 9.710938 -4.8125 9.578125 -4.53125 9.390625 -4.15625 C 9.203125 -3.789062 9.039062 -3.492188 8.90625 -3.265625 C 8.78125 -3.035156 8.613281 -2.753906 8.40625 -2.421875 C 8.195312 -2.097656 7.992188 -1.84375 7.796875 -1.65625 L 7.140625 -0.984375 C 6.796875 -0.640625 6.382812 -0.394531 5.90625 -0.25 C 5.15625 0 4.421875 0.0195312 3.703125 -0.1875 C 3.222656 0.0195312 2.800781 0.125 2.4375 0.125 C 0.976562 0.125 0.09375 -0.445312 -0.21875 -1.59375 C -0.28125 -1.863281 -0.3125 -2.1875 -0.3125 -2.5625 C -0.3125 -2.945312 -0.179688 -3.3125 0.078125 -3.65625 C 0.335938 -4.007812 0.609375 -4.195312 0.890625 -4.21875 C 1.941406 -6.207031 2.835938 -8.003906 3.578125 -9.609375 C 4.398438 -11.347656 5.351562 -12.21875 6.4375 -12.21875 C 6.726562 -12.21875 7.007812 -12.148438 7.28125 -12.015625 C 7.5625 -11.890625 7.664062 -11.742188 7.59375 -11.578125 C 7.519531 -11.410156 7.367188 -11.378906 7.140625 -11.484375 C 6.921875 -11.585938 6.726562 -11.640625 6.5625 -11.640625 C 6.394531 -11.640625 6.25 -11.609375 6.125 -11.546875 C 5.425781 -11.222656 5.078125 -10.515625 5.078125 -9.421875 C 5.078125 -8.847656 5.160156 -8.375 5.328125 -8 C 5.492188 -7.632812 5.675781 -7.238281 5.875 -6.8125 C 6.351562 -5.738281 6.59375 -4.863281 6.59375 -4.1875 C 6.59375 -3.507812 6.375 -2.84375 5.9375 -2.1875 C 5.507812 -1.53125 5 -0.992188 4.40625 -0.578125 Z M 3.359375 -0.796875 C 4.265625 -1.492188 4.71875 -2.625 4.71875 -4.1875 C 4.71875 -4.820312 4.644531 -5.691406 4.5 -6.796875 C 4.351562 -7.910156 4.28125 -8.660156 4.28125 -9.046875 C 4.28125 -9.441406 4.289062 -9.710938 4.3125 -9.859375 C 2.75 -6.734375 1.785156 -4.832031 1.421875 -4.15625 C 1.847656 -4.15625 2.0625 -3.847656 2.0625 -3.234375 C 2.0625 -2.023438 2.492188 -1.210938 3.359375 -0.796875 Z M 1.046875 -1.625 C 1.046875 -1.507812 1.054688 -1.378906 1.078125 -1.234375 C 1.242188 -0.679688 1.625 -0.40625 2.21875 -0.40625 C 2.46875 -0.40625 2.671875 -0.445312 2.828125 -0.53125 C 2.066406 -1 1.660156 -1.765625 1.609375 -2.828125 C 1.234375 -2.460938 1.046875 -2.0625 1.046875 -1.625 Z M 1.046875 -1.625 " />
            </g>
        </g>
    </g>
    <g fill="#ff66c4" fill-opacity="1">
        <g transform="translate(100.787823, 29.292771)">
            <g>
                <path
                    d="M 4.40625 -0.578125 C 4.675781 -0.546875 4.859375 -0.53125 4.953125 -0.53125 C 5.773438 -0.53125 6.585938 -1.007812 7.390625 -1.96875 C 7.816406 -2.5 8.585938 -3.84375 9.703125 -6 C 9.742188 -6.101562 9.816406 -6.15625 9.921875 -6.15625 C 10.097656 -6.175781 10.1875 -6.101562 10.1875 -5.9375 C 10.1875 -5.894531 10.140625 -5.773438 10.046875 -5.578125 C 9.960938 -5.390625 9.878906 -5.195312 9.796875 -5 C 9.710938 -4.8125 9.578125 -4.53125 9.390625 -4.15625 C 9.203125 -3.789062 9.039062 -3.492188 8.90625 -3.265625 C 8.78125 -3.035156 8.613281 -2.753906 8.40625 -2.421875 C 8.195312 -2.097656 7.992188 -1.84375 7.796875 -1.65625 L 7.140625 -0.984375 C 6.796875 -0.640625 6.382812 -0.394531 5.90625 -0.25 C 5.15625 0 4.421875 0.0195312 3.703125 -0.1875 C 3.222656 0.0195312 2.800781 0.125 2.4375 0.125 C 0.976562 0.125 0.09375 -0.445312 -0.21875 -1.59375 C -0.28125 -1.863281 -0.3125 -2.1875 -0.3125 -2.5625 C -0.3125 -2.945312 -0.179688 -3.3125 0.078125 -3.65625 C 0.335938 -4.007812 0.609375 -4.195312 0.890625 -4.21875 C 1.941406 -6.207031 2.835938 -8.003906 3.578125 -9.609375 C 4.398438 -11.347656 5.351562 -12.21875 6.4375 -12.21875 C 6.726562 -12.21875 7.007812 -12.148438 7.28125 -12.015625 C 7.5625 -11.890625 7.664062 -11.742188 7.59375 -11.578125 C 7.519531 -11.410156 7.367188 -11.378906 7.140625 -11.484375 C 6.921875 -11.585938 6.726562 -11.640625 6.5625 -11.640625 C 6.394531 -11.640625 6.25 -11.609375 6.125 -11.546875 C 5.425781 -11.222656 5.078125 -10.515625 5.078125 -9.421875 C 5.078125 -8.847656 5.160156 -8.375 5.328125 -8 C 5.492188 -7.632812 5.675781 -7.238281 5.875 -6.8125 C 6.351562 -5.738281 6.59375 -4.863281 6.59375 -4.1875 C 6.59375 -3.507812 6.375 -2.84375 5.9375 -2.1875 C 5.507812 -1.53125 5 -0.992188 4.40625 -0.578125 Z M 3.359375 -0.796875 C 4.265625 -1.492188 4.71875 -2.625 4.71875 -4.1875 C 4.71875 -4.820312 4.644531 -5.691406 4.5 -6.796875 C 4.351562 -7.910156 4.28125 -8.660156 4.28125 -9.046875 C 4.28125 -9.441406 4.289062 -9.710938 4.3125 -9.859375 C 2.75 -6.734375 1.785156 -4.832031 1.421875 -4.15625 C 1.847656 -4.15625 2.0625 -3.847656 2.0625 -3.234375 C 2.0625 -2.023438 2.492188 -1.210938 3.359375 -0.796875 Z M 1.046875 -1.625 C 1.046875 -1.507812 1.054688 -1.378906 1.078125 -1.234375 C 1.242188 -0.679688 1.625 -0.40625 2.21875 -0.40625 C 2.46875 -0.40625 2.671875 -0.445312 2.828125 -0.53125 C 2.066406 -1 1.660156 -1.765625 1.609375 -2.828125 C 1.234375 -2.460938 1.046875 -2.0625 1.046875 -1.625 Z M 1.046875 -1.625 " />
            </g>
        </g>
    </g>
    <g fill="#ff00ff" fill-opacity="1">
        <g transform="translate(111.012047, 29.049986)">
            <g>
                <path
                    d="M 0.984375 -2.46875 C 0.984375 -4.164062 1.804688 -7.019531 3.453125 -11.03125 L 1.84375 -11.03125 C 1.738281 -11.03125 1.671875 -11.082031 1.640625 -11.1875 C 1.609375 -11.300781 1.617188 -11.414062 1.671875 -11.53125 C 1.722656 -11.644531 1.800781 -11.703125 1.90625 -11.703125 L 3.75 -11.703125 C 4.488281 -13.328125 5.175781 -14.679688 5.8125 -15.765625 C 6.457031 -16.859375 7.046875 -17.59375 7.578125 -17.96875 C 8.109375 -18.351562 8.488281 -18.546875 8.71875 -18.546875 C 8.957031 -18.546875 9.128906 -18.523438 9.234375 -18.484375 C 9.710938 -18.253906 9.953125 -17.785156 9.953125 -17.078125 C 9.953125 -16.367188 9.710938 -15.507812 9.234375 -14.5 C 8.765625 -13.5 8.304688 -12.566406 7.859375 -11.703125 L 9.328125 -11.703125 C 9.429688 -11.703125 9.5 -11.644531 9.53125 -11.53125 C 9.5625 -11.414062 9.550781 -11.300781 9.5 -11.1875 C 9.445312 -11.082031 9.367188 -11.03125 9.265625 -11.03125 L 7.484375 -11.03125 C 6.359375 -9.113281 4.992188 -7.414062 3.390625 -5.9375 L 2.671875 -2.796875 C 2.617188 -2.535156 2.59375 -2.273438 2.59375 -2.015625 C 2.59375 -1.753906 2.660156 -1.488281 2.796875 -1.21875 C 2.941406 -0.957031 3.171875 -0.828125 3.484375 -0.828125 C 3.828125 -0.828125 4.21875 -0.953125 4.65625 -1.203125 C 5.632812 -1.941406 6.722656 -3.488281 7.921875 -5.84375 C 7.992188 -6.03125 8.085938 -6.144531 8.203125 -6.1875 C 8.316406 -6.226562 8.382812 -6.203125 8.40625 -6.109375 C 8.425781 -6.015625 8.394531 -5.867188 8.3125 -5.671875 C 7.632812 -4.253906 7.101562 -3.25 6.71875 -2.65625 C 5.601562 -0.863281 4.421875 0.03125 3.171875 0.03125 C 2.535156 0.03125 2.007812 -0.203125 1.59375 -0.671875 C 1.1875 -1.148438 0.984375 -1.75 0.984375 -2.46875 Z M 7.171875 -11.703125 C 8.523438 -14.128906 9.203125 -15.8125 9.203125 -16.75 C 9.203125 -17.164062 9.132812 -17.375 9 -17.375 C 8.769531 -17.375 8.421875 -17.039062 7.953125 -16.375 C 7.492188 -15.71875 6.722656 -14.160156 5.640625 -11.703125 Z M 6.78125 -11.03125 L 5.328125 -11.03125 C 5.078125 -10.445312 4.523438 -9.078125 3.671875 -6.921875 C 4.773438 -8.078125 5.8125 -9.445312 6.78125 -11.03125 Z M 6.78125 -11.03125 " />
            </g>
        </g>
    </g>
    <g fill="#00ffff" fill-opacity="1">
        <g transform="translate(112.102659, 29.535557)">
            <g>
                <path
                    d="M 0.984375 -2.46875 C 0.984375 -4.164062 1.804688 -7.019531 3.453125 -11.03125 L 1.84375 -11.03125 C 1.738281 -11.03125 1.671875 -11.082031 1.640625 -11.1875 C 1.609375 -11.300781 1.617188 -11.414062 1.671875 -11.53125 C 1.722656 -11.644531 1.800781 -11.703125 1.90625 -11.703125 L 3.75 -11.703125 C 4.488281 -13.328125 5.175781 -14.679688 5.8125 -15.765625 C 6.457031 -16.859375 7.046875 -17.59375 7.578125 -17.96875 C 8.109375 -18.351562 8.488281 -18.546875 8.71875 -18.546875 C 8.957031 -18.546875 9.128906 -18.523438 9.234375 -18.484375 C 9.710938 -18.253906 9.953125 -17.785156 9.953125 -17.078125 C 9.953125 -16.367188 9.710938 -15.507812 9.234375 -14.5 C 8.765625 -13.5 8.304688 -12.566406 7.859375 -11.703125 L 9.328125 -11.703125 C 9.429688 -11.703125 9.5 -11.644531 9.53125 -11.53125 C 9.5625 -11.414062 9.550781 -11.300781 9.5 -11.1875 C 9.445312 -11.082031 9.367188 -11.03125 9.265625 -11.03125 L 7.484375 -11.03125 C 6.359375 -9.113281 4.992188 -7.414062 3.390625 -5.9375 L 2.671875 -2.796875 C 2.617188 -2.535156 2.59375 -2.273438 2.59375 -2.015625 C 2.59375 -1.753906 2.660156 -1.488281 2.796875 -1.21875 C 2.941406 -0.957031 3.171875 -0.828125 3.484375 -0.828125 C 3.828125 -0.828125 4.21875 -0.953125 4.65625 -1.203125 C 5.632812 -1.941406 6.722656 -3.488281 7.921875 -5.84375 C 7.992188 -6.03125 8.085938 -6.144531 8.203125 -6.1875 C 8.316406 -6.226562 8.382812 -6.203125 8.40625 -6.109375 C 8.425781 -6.015625 8.394531 -5.867188 8.3125 -5.671875 C 7.632812 -4.253906 7.101562 -3.25 6.71875 -2.65625 C 5.601562 -0.863281 4.421875 0.03125 3.171875 0.03125 C 2.535156 0.03125 2.007812 -0.203125 1.59375 -0.671875 C 1.1875 -1.148438 0.984375 -1.75 0.984375 -2.46875 Z M 7.171875 -11.703125 C 8.523438 -14.128906 9.203125 -15.8125 9.203125 -16.75 C 9.203125 -17.164062 9.132812 -17.375 9 -17.375 C 8.769531 -17.375 8.421875 -17.039062 7.953125 -16.375 C 7.492188 -15.71875 6.722656 -14.160156 5.640625 -11.703125 Z M 6.78125 -11.03125 L 5.328125 -11.03125 C 5.078125 -10.445312 4.523438 -9.078125 3.671875 -6.921875 C 4.773438 -8.078125 5.8125 -9.445312 6.78125 -11.03125 Z M 6.78125 -11.03125 " />
            </g>
        </g>
    </g>
    <g fill="#cb6ce6" fill-opacity="1">
        <g transform="translate(111.557353, 29.292771)">
            <g>
                <path
                    d="M 0.984375 -2.46875 C 0.984375 -4.164062 1.804688 -7.019531 3.453125 -11.03125 L 1.84375 -11.03125 C 1.738281 -11.03125 1.671875 -11.082031 1.640625 -11.1875 C 1.609375 -11.300781 1.617188 -11.414062 1.671875 -11.53125 C 1.722656 -11.644531 1.800781 -11.703125 1.90625 -11.703125 L 3.75 -11.703125 C 4.488281 -13.328125 5.175781 -14.679688 5.8125 -15.765625 C 6.457031 -16.859375 7.046875 -17.59375 7.578125 -17.96875 C 8.109375 -18.351562 8.488281 -18.546875 8.71875 -18.546875 C 8.957031 -18.546875 9.128906 -18.523438 9.234375 -18.484375 C 9.710938 -18.253906 9.953125 -17.785156 9.953125 -17.078125 C 9.953125 -16.367188 9.710938 -15.507812 9.234375 -14.5 C 8.765625 -13.5 8.304688 -12.566406 7.859375 -11.703125 L 9.328125 -11.703125 C 9.429688 -11.703125 9.5 -11.644531 9.53125 -11.53125 C 9.5625 -11.414062 9.550781 -11.300781 9.5 -11.1875 C 9.445312 -11.082031 9.367188 -11.03125 9.265625 -11.03125 L 7.484375 -11.03125 C 6.359375 -9.113281 4.992188 -7.414062 3.390625 -5.9375 L 2.671875 -2.796875 C 2.617188 -2.535156 2.59375 -2.273438 2.59375 -2.015625 C 2.59375 -1.753906 2.660156 -1.488281 2.796875 -1.21875 C 2.941406 -0.957031 3.171875 -0.828125 3.484375 -0.828125 C 3.828125 -0.828125 4.21875 -0.953125 4.65625 -1.203125 C 5.632812 -1.941406 6.722656 -3.488281 7.921875 -5.84375 C 7.992188 -6.03125 8.085938 -6.144531 8.203125 -6.1875 C 8.316406 -6.226562 8.382812 -6.203125 8.40625 -6.109375 C 8.425781 -6.015625 8.394531 -5.867188 8.3125 -5.671875 C 7.632812 -4.253906 7.101562 -3.25 6.71875 -2.65625 C 5.601562 -0.863281 4.421875 0.03125 3.171875 0.03125 C 2.535156 0.03125 2.007812 -0.203125 1.59375 -0.671875 C 1.1875 -1.148438 0.984375 -1.75 0.984375 -2.46875 Z M 7.171875 -11.703125 C 8.523438 -14.128906 9.203125 -15.8125 9.203125 -16.75 C 9.203125 -17.164062 9.132812 -17.375 9 -17.375 C 8.769531 -17.375 8.421875 -17.039062 7.953125 -16.375 C 7.492188 -15.71875 6.722656 -14.160156 5.640625 -11.703125 Z M 6.78125 -11.03125 L 5.328125 -11.03125 C 5.078125 -10.445312 4.523438 -9.078125 3.671875 -6.921875 C 4.773438 -8.078125 5.8125 -9.445312 6.78125 -11.03125 Z M 6.78125 -11.03125 " />
            </g>
        </g>
    </g>
    <g fill="#ff00ff" fill-opacity="1">
        <g transform="translate(120.058921, 29.049986)">
            <g>
                <path
                    d="M 11.125 -8.34375 C 10.75 -7.976562 10.222656 -7.140625 9.546875 -5.828125 C 8.867188 -4.523438 8.460938 -3.550781 8.328125 -2.90625 C 8.191406 -2.257812 8.125 -1.734375 8.125 -1.328125 C 8.125 -0.929688 8.28125 -0.734375 8.59375 -0.734375 C 8.976562 -0.734375 9.460938 -1.09375 10.046875 -1.8125 C 10.878906 -2.863281 11.707031 -4.226562 12.53125 -5.90625 C 12.613281 -6.09375 12.707031 -6.195312 12.8125 -6.21875 C 12.976562 -6.28125 13.0625 -6.21875 13.0625 -6.03125 C 13.0625 -5.925781 13.03125 -5.804688 12.96875 -5.671875 C 11.070312 -1.847656 9.476562 0.0625 8.1875 0.0625 C 7.59375 0.0625 7.113281 -0.222656 6.75 -0.796875 C 6.5625 -1.109375 6.46875 -1.519531 6.46875 -2.03125 C 6.46875 -2.539062 6.570312 -3.164062 6.78125 -3.90625 C 5.132812 -1.257812 3.71875 0.0625 2.53125 0.0625 C 2.195312 0.0625 1.894531 -0.0390625 1.625 -0.25 C 1.007812 -0.675781 0.703125 -1.414062 0.703125 -2.46875 C 0.703125 -4.476562 1.578125 -6.519531 3.328125 -8.59375 C 4.304688 -9.738281 5.515625 -10.488281 6.953125 -10.84375 C 7.347656 -10.945312 7.71875 -11 8.0625 -11 C 9.007812 -11 9.8125 -10.671875 10.46875 -10.015625 C 10.675781 -9.785156 10.738281 -9.566406 10.65625 -9.359375 C 10.570312 -9.148438 10.394531 -9.066406 10.125 -9.109375 C 9.90625 -9.847656 9.414062 -10.21875 8.65625 -10.21875 C 7.769531 -10.21875 6.679688 -9.519531 5.390625 -8.125 C 4.648438 -7.3125 3.960938 -6.347656 3.328125 -5.234375 C 2.523438 -3.898438 2.125 -2.832031 2.125 -2.03125 C 2.125 -1.226562 2.378906 -0.828125 2.890625 -0.828125 C 4.128906 -0.828125 5.742188 -2.71875 7.734375 -6.5 C 8.117188 -7.257812 8.441406 -7.773438 8.703125 -8.046875 C 8.972656 -8.328125 9.316406 -8.46875 9.734375 -8.46875 C 9.816406 -8.46875 10.023438 -8.4375 10.359375 -8.375 C 10.703125 -8.3125 10.957031 -8.300781 11.125 -8.34375 Z M 11.125 -8.34375 " />
            </g>
        </g>
    </g>
    <g fill="#00ffff" fill-opacity="1">
        <g transform="translate(121.149532, 29.535557)">
            <g>
                <path
                    d="M 11.125 -8.34375 C 10.75 -7.976562 10.222656 -7.140625 9.546875 -5.828125 C 8.867188 -4.523438 8.460938 -3.550781 8.328125 -2.90625 C 8.191406 -2.257812 8.125 -1.734375 8.125 -1.328125 C 8.125 -0.929688 8.28125 -0.734375 8.59375 -0.734375 C 8.976562 -0.734375 9.460938 -1.09375 10.046875 -1.8125 C 10.878906 -2.863281 11.707031 -4.226562 12.53125 -5.90625 C 12.613281 -6.09375 12.707031 -6.195312 12.8125 -6.21875 C 12.976562 -6.28125 13.0625 -6.21875 13.0625 -6.03125 C 13.0625 -5.925781 13.03125 -5.804688 12.96875 -5.671875 C 11.070312 -1.847656 9.476562 0.0625 8.1875 0.0625 C 7.59375 0.0625 7.113281 -0.222656 6.75 -0.796875 C 6.5625 -1.109375 6.46875 -1.519531 6.46875 -2.03125 C 6.46875 -2.539062 6.570312 -3.164062 6.78125 -3.90625 C 5.132812 -1.257812 3.71875 0.0625 2.53125 0.0625 C 2.195312 0.0625 1.894531 -0.0390625 1.625 -0.25 C 1.007812 -0.675781 0.703125 -1.414062 0.703125 -2.46875 C 0.703125 -4.476562 1.578125 -6.519531 3.328125 -8.59375 C 4.304688 -9.738281 5.515625 -10.488281 6.953125 -10.84375 C 7.347656 -10.945312 7.71875 -11 8.0625 -11 C 9.007812 -11 9.8125 -10.671875 10.46875 -10.015625 C 10.675781 -9.785156 10.738281 -9.566406 10.65625 -9.359375 C 10.570312 -9.148438 10.394531 -9.066406 10.125 -9.109375 C 9.90625 -9.847656 9.414062 -10.21875 8.65625 -10.21875 C 7.769531 -10.21875 6.679688 -9.519531 5.390625 -8.125 C 4.648438 -7.3125 3.960938 -6.347656 3.328125 -5.234375 C 2.523438 -3.898438 2.125 -2.832031 2.125 -2.03125 C 2.125 -1.226562 2.378906 -0.828125 2.890625 -0.828125 C 4.128906 -0.828125 5.742188 -2.71875 7.734375 -6.5 C 8.117188 -7.257812 8.441406 -7.773438 8.703125 -8.046875 C 8.972656 -8.328125 9.316406 -8.46875 9.734375 -8.46875 C 9.816406 -8.46875 10.023438 -8.4375 10.359375 -8.375 C 10.703125 -8.3125 10.957031 -8.300781 11.125 -8.34375 Z M 11.125 -8.34375 " />
            </g>
        </g>
    </g>
    <g fill="#8c52ff" fill-opacity="1">
        <g transform="translate(120.604227, 29.292771)">
            <g>
                <path
                    d="M 11.125 -8.34375 C 10.75 -7.976562 10.222656 -7.140625 9.546875 -5.828125 C 8.867188 -4.523438 8.460938 -3.550781 8.328125 -2.90625 C 8.191406 -2.257812 8.125 -1.734375 8.125 -1.328125 C 8.125 -0.929688 8.28125 -0.734375 8.59375 -0.734375 C 8.976562 -0.734375 9.460938 -1.09375 10.046875 -1.8125 C 10.878906 -2.863281 11.707031 -4.226562 12.53125 -5.90625 C 12.613281 -6.09375 12.707031 -6.195312 12.8125 -6.21875 C 12.976562 -6.28125 13.0625 -6.21875 13.0625 -6.03125 C 13.0625 -5.925781 13.03125 -5.804688 12.96875 -5.671875 C 11.070312 -1.847656 9.476562 0.0625 8.1875 0.0625 C 7.59375 0.0625 7.113281 -0.222656 6.75 -0.796875 C 6.5625 -1.109375 6.46875 -1.519531 6.46875 -2.03125 C 6.46875 -2.539062 6.570312 -3.164062 6.78125 -3.90625 C 5.132812 -1.257812 3.71875 0.0625 2.53125 0.0625 C 2.195312 0.0625 1.894531 -0.0390625 1.625 -0.25 C 1.007812 -0.675781 0.703125 -1.414062 0.703125 -2.46875 C 0.703125 -4.476562 1.578125 -6.519531 3.328125 -8.59375 C 4.304688 -9.738281 5.515625 -10.488281 6.953125 -10.84375 C 7.347656 -10.945312 7.71875 -11 8.0625 -11 C 9.007812 -11 9.8125 -10.671875 10.46875 -10.015625 C 10.675781 -9.785156 10.738281 -9.566406 10.65625 -9.359375 C 10.570312 -9.148438 10.394531 -9.066406 10.125 -9.109375 C 9.90625 -9.847656 9.414062 -10.21875 8.65625 -10.21875 C 7.769531 -10.21875 6.679688 -9.519531 5.390625 -8.125 C 4.648438 -7.3125 3.960938 -6.347656 3.328125 -5.234375 C 2.523438 -3.898438 2.125 -2.832031 2.125 -2.03125 C 2.125 -1.226562 2.378906 -0.828125 2.890625 -0.828125 C 4.128906 -0.828125 5.742188 -2.71875 7.734375 -6.5 C 8.117188 -7.257812 8.441406 -7.773438 8.703125 -8.046875 C 8.972656 -8.328125 9.316406 -8.46875 9.734375 -8.46875 C 9.816406 -8.46875 10.023438 -8.4375 10.359375 -8.375 C 10.703125 -8.3125 10.957031 -8.300781 11.125 -8.34375 Z M 11.125 -8.34375 " />
            </g>
        </g>
    </g>
    <g fill="#ff00ff" fill-opacity="1">
        <g transform="translate(133.722981, 29.049986)">
            <g>
                <path
                    d="M -0.375 9.734375 C -2.300781 9.734375 -3.265625 8.941406 -3.265625 7.359375 C -3.265625 6.046875 -2.367188 4.863281 -0.578125 3.8125 C 0.929688 2.9375 2.867188 2.109375 5.234375 1.328125 C 6.328125 0.972656 7.117188 0.695312 7.609375 0.5 C 8.140625 -1.0625 8.40625 -2.769531 8.40625 -4.625 C 8.40625 -4.988281 8.382812 -5.265625 8.34375 -5.453125 C 7.769531 -4.285156 6.976562 -3.082031 5.96875 -1.84375 C 4.78125 -0.363281 3.601562 0.207031 2.4375 -0.125 C 1.363281 -0.570312 0.828125 -1.453125 0.828125 -2.765625 C 0.828125 -4.535156 1.710938 -6.476562 3.484375 -8.59375 C 4.441406 -9.738281 5.570312 -10.46875 6.875 -10.78125 C 7.21875 -10.882812 7.566406 -10.9375 7.921875 -10.9375 C 8.835938 -10.9375 9.738281 -10.628906 10.625 -10.015625 C 10.957031 -9.742188 11.125 -9.515625 11.125 -9.328125 C 11.125 -9.140625 11.0625 -8.957031 10.9375 -8.78125 C 10.8125 -8.613281 10.679688 -8.597656 10.546875 -8.734375 C 10.410156 -8.867188 10.320312 -8.992188 10.28125 -9.109375 C 10.019531 -9.867188 9.59375 -10.25 9 -10.25 C 7.90625 -10.25 6.679688 -9.488281 5.328125 -7.96875 C 4.566406 -7.113281 3.910156 -6.191406 3.359375 -5.203125 C 2.679688 -3.972656 2.34375 -3.023438 2.34375 -2.359375 C 2.34375 -1.691406 2.546875 -1.242188 2.953125 -1.015625 C 3.097656 -0.953125 3.242188 -0.921875 3.390625 -0.921875 C 3.859375 -0.921875 4.445312 -1.242188 5.15625 -1.890625 C 5.863281 -2.535156 6.519531 -3.351562 7.125 -4.34375 C 7.726562 -5.34375 8.113281 -6.117188 8.28125 -6.671875 C 8.445312 -7.234375 8.644531 -7.585938 8.875 -7.734375 C 9.113281 -7.878906 9.375 -7.957031 9.65625 -7.96875 C 9.945312 -7.988281 10.144531 -8.039062 10.25 -8.125 C 10.414062 -7.207031 10.5 -6.125 10.5 -4.875 C 10.5 -3.632812 10.285156 -2.222656 9.859375 -0.640625 C 10.796875 -1.316406 11.460938 -1.921875 11.859375 -2.453125 C 12.265625 -2.992188 12.585938 -3.476562 12.828125 -3.90625 C 13.066406 -4.34375 13.273438 -4.769531 13.453125 -5.1875 C 13.640625 -5.613281 13.765625 -5.882812 13.828125 -6 C 13.890625 -6.125 13.988281 -6.203125 14.125 -6.234375 C 14.269531 -6.265625 14.34375 -6.195312 14.34375 -6.03125 C 14.34375 -5.925781 14.316406 -5.804688 14.265625 -5.671875 C 13.359375 -3.796875 12.601562 -2.441406 12 -1.609375 C 11.394531 -0.785156 10.566406 -0.125 9.515625 0.375 C 9.023438 1.769531 8.3125 3.15625 7.375 4.53125 C 6.4375 5.90625 5.257812 7.113281 3.84375 8.15625 C 2.425781 9.207031 1.019531 9.734375 -0.375 9.734375 Z M -2.625 7.953125 C -2.625 8.722656 -2.117188 9.109375 -1.109375 9.109375 C -0.515625 9.109375 0.15625 8.929688 0.90625 8.578125 C 1.65625 8.234375 2.273438 7.878906 2.765625 7.515625 C 3.609375 6.835938 4.535156 5.832031 5.546875 4.5 C 6.304688 3.425781 6.890625 2.390625 7.296875 1.390625 L 6.21875 1.75 C 3.019531 2.863281 0.765625 3.851562 -0.546875 4.71875 C -1.515625 5.351562 -2.15625 6.160156 -2.46875 7.140625 C -2.570312 7.453125 -2.625 7.722656 -2.625 7.953125 Z M -2.625 7.953125 " />
            </g>
        </g>
    </g>
    <g fill="#00ffff" fill-opacity="1">
        <g transform="translate(134.813593, 29.535557)">
            <g>
                <path
                    d="M -0.375 9.734375 C -2.300781 9.734375 -3.265625 8.941406 -3.265625 7.359375 C -3.265625 6.046875 -2.367188 4.863281 -0.578125 3.8125 C 0.929688 2.9375 2.867188 2.109375 5.234375 1.328125 C 6.328125 0.972656 7.117188 0.695312 7.609375 0.5 C 8.140625 -1.0625 8.40625 -2.769531 8.40625 -4.625 C 8.40625 -4.988281 8.382812 -5.265625 8.34375 -5.453125 C 7.769531 -4.285156 6.976562 -3.082031 5.96875 -1.84375 C 4.78125 -0.363281 3.601562 0.207031 2.4375 -0.125 C 1.363281 -0.570312 0.828125 -1.453125 0.828125 -2.765625 C 0.828125 -4.535156 1.710938 -6.476562 3.484375 -8.59375 C 4.441406 -9.738281 5.570312 -10.46875 6.875 -10.78125 C 7.21875 -10.882812 7.566406 -10.9375 7.921875 -10.9375 C 8.835938 -10.9375 9.738281 -10.628906 10.625 -10.015625 C 10.957031 -9.742188 11.125 -9.515625 11.125 -9.328125 C 11.125 -9.140625 11.0625 -8.957031 10.9375 -8.78125 C 10.8125 -8.613281 10.679688 -8.597656 10.546875 -8.734375 C 10.410156 -8.867188 10.320312 -8.992188 10.28125 -9.109375 C 10.019531 -9.867188 9.59375 -10.25 9 -10.25 C 7.90625 -10.25 6.679688 -9.488281 5.328125 -7.96875 C 4.566406 -7.113281 3.910156 -6.191406 3.359375 -5.203125 C 2.679688 -3.972656 2.34375 -3.023438 2.34375 -2.359375 C 2.34375 -1.691406 2.546875 -1.242188 2.953125 -1.015625 C 3.097656 -0.953125 3.242188 -0.921875 3.390625 -0.921875 C 3.859375 -0.921875 4.445312 -1.242188 5.15625 -1.890625 C 5.863281 -2.535156 6.519531 -3.351562 7.125 -4.34375 C 7.726562 -5.34375 8.113281 -6.117188 8.28125 -6.671875 C 8.445312 -7.234375 8.644531 -7.585938 8.875 -7.734375 C 9.113281 -7.878906 9.375 -7.957031 9.65625 -7.96875 C 9.945312 -7.988281 10.144531 -8.039062 10.25 -8.125 C 10.414062 -7.207031 10.5 -6.125 10.5 -4.875 C 10.5 -3.632812 10.285156 -2.222656 9.859375 -0.640625 C 10.796875 -1.316406 11.460938 -1.921875 11.859375 -2.453125 C 12.265625 -2.992188 12.585938 -3.476562 12.828125 -3.90625 C 13.066406 -4.34375 13.273438 -4.769531 13.453125 -5.1875 C 13.640625 -5.613281 13.765625 -5.882812 13.828125 -6 C 13.890625 -6.125 13.988281 -6.203125 14.125 -6.234375 C 14.269531 -6.265625 14.34375 -6.195312 14.34375 -6.03125 C 14.34375 -5.925781 14.316406 -5.804688 14.265625 -5.671875 C 13.359375 -3.796875 12.601562 -2.441406 12 -1.609375 C 11.394531 -0.785156 10.566406 -0.125 9.515625 0.375 C 9.023438 1.769531 8.3125 3.15625 7.375 4.53125 C 6.4375 5.90625 5.257812 7.113281 3.84375 8.15625 C 2.425781 9.207031 1.019531 9.734375 -0.375 9.734375 Z M -2.625 7.953125 C -2.625 8.722656 -2.117188 9.109375 -1.109375 9.109375 C -0.515625 9.109375 0.15625 8.929688 0.90625 8.578125 C 1.65625 8.234375 2.273438 7.878906 2.765625 7.515625 C 3.609375 6.835938 4.535156 5.832031 5.546875 4.5 C 6.304688 3.425781 6.890625 2.390625 7.296875 1.390625 L 6.21875 1.75 C 3.019531 2.863281 0.765625 3.851562 -0.546875 4.71875 C -1.515625 5.351562 -2.15625 6.160156 -2.46875 7.140625 C -2.570312 7.453125 -2.625 7.722656 -2.625 7.953125 Z M -2.625 7.953125 " />
            </g>
        </g>
    </g>
    <g fill="#5e17eb" fill-opacity="1">
        <g transform="translate(134.268287, 29.292771)">
            <g>
                <path
                    d="M -0.375 9.734375 C -2.300781 9.734375 -3.265625 8.941406 -3.265625 7.359375 C -3.265625 6.046875 -2.367188 4.863281 -0.578125 3.8125 C 0.929688 2.9375 2.867188 2.109375 5.234375 1.328125 C 6.328125 0.972656 7.117188 0.695312 7.609375 0.5 C 8.140625 -1.0625 8.40625 -2.769531 8.40625 -4.625 C 8.40625 -4.988281 8.382812 -5.265625 8.34375 -5.453125 C 7.769531 -4.285156 6.976562 -3.082031 5.96875 -1.84375 C 4.78125 -0.363281 3.601562 0.207031 2.4375 -0.125 C 1.363281 -0.570312 0.828125 -1.453125 0.828125 -2.765625 C 0.828125 -4.535156 1.710938 -6.476562 3.484375 -8.59375 C 4.441406 -9.738281 5.570312 -10.46875 6.875 -10.78125 C 7.21875 -10.882812 7.566406 -10.9375 7.921875 -10.9375 C 8.835938 -10.9375 9.738281 -10.628906 10.625 -10.015625 C 10.957031 -9.742188 11.125 -9.515625 11.125 -9.328125 C 11.125 -9.140625 11.0625 -8.957031 10.9375 -8.78125 C 10.8125 -8.613281 10.679688 -8.597656 10.546875 -8.734375 C 10.410156 -8.867188 10.320312 -8.992188 10.28125 -9.109375 C 10.019531 -9.867188 9.59375 -10.25 9 -10.25 C 7.90625 -10.25 6.679688 -9.488281 5.328125 -7.96875 C 4.566406 -7.113281 3.910156 -6.191406 3.359375 -5.203125 C 2.679688 -3.972656 2.34375 -3.023438 2.34375 -2.359375 C 2.34375 -1.691406 2.546875 -1.242188 2.953125 -1.015625 C 3.097656 -0.953125 3.242188 -0.921875 3.390625 -0.921875 C 3.859375 -0.921875 4.445312 -1.242188 5.15625 -1.890625 C 5.863281 -2.535156 6.519531 -3.351562 7.125 -4.34375 C 7.726562 -5.34375 8.113281 -6.117188 8.28125 -6.671875 C 8.445312 -7.234375 8.644531 -7.585938 8.875 -7.734375 C 9.113281 -7.878906 9.375 -7.957031 9.65625 -7.96875 C 9.945312 -7.988281 10.144531 -8.039062 10.25 -8.125 C 10.414062 -7.207031 10.5 -6.125 10.5 -4.875 C 10.5 -3.632812 10.285156 -2.222656 9.859375 -0.640625 C 10.796875 -1.316406 11.460938 -1.921875 11.859375 -2.453125 C 12.265625 -2.992188 12.585938 -3.476562 12.828125 -3.90625 C 13.066406 -4.34375 13.273438 -4.769531 13.453125 -5.1875 C 13.640625 -5.613281 13.765625 -5.882812 13.828125 -6 C 13.890625 -6.125 13.988281 -6.203125 14.125 -6.234375 C 14.269531 -6.265625 14.34375 -6.195312 14.34375 -6.03125 C 14.34375 -5.925781 14.316406 -5.804688 14.265625 -5.671875 C 13.359375 -3.796875 12.601562 -2.441406 12 -1.609375 C 11.394531 -0.785156 10.566406 -0.125 9.515625 0.375 C 9.023438 1.769531 8.3125 3.15625 7.375 4.53125 C 6.4375 5.90625 5.257812 7.113281 3.84375 8.15625 C 2.425781 9.207031 1.019531 9.734375 -0.375 9.734375 Z M -2.625 7.953125 C -2.625 8.722656 -2.117188 9.109375 -1.109375 9.109375 C -0.515625 9.109375 0.15625 8.929688 0.90625 8.578125 C 1.65625 8.234375 2.273438 7.878906 2.765625 7.515625 C 3.609375 6.835938 4.535156 5.832031 5.546875 4.5 C 6.304688 3.425781 6.890625 2.390625 7.296875 1.390625 L 6.21875 1.75 C 3.019531 2.863281 0.765625 3.851562 -0.546875 4.71875 C -1.515625 5.351562 -2.15625 6.160156 -2.46875 7.140625 C -2.570312 7.453125 -2.625 7.722656 -2.625 7.953125 Z M -2.625 7.953125 " />
            </g>
        </g>
    </g>
    <g fill="#ff00ff" fill-opacity="1">
        <g transform="translate(148.687827, 29.049986)">
            <g>
                <path
                    d="M 5.90625 -12.34375 C 5.90625 -11.425781 5.320312 -10.554688 4.15625 -9.734375 C 4.570312 -9.710938 5.125 -9.703125 5.8125 -9.703125 C 6.5 -9.703125 7.363281 -9.753906 8.40625 -9.859375 C 8.445312 -9.796875 8.46875 -9.628906 8.46875 -9.359375 C 8.46875 -9.097656 8.34375 -8.703125 8.09375 -8.171875 C 7.851562 -7.648438 7.632812 -7.195312 7.4375 -6.8125 C 7.238281 -6.4375 7.050781 -6.078125 6.875 -5.734375 C 6.707031 -5.398438 6.515625 -4.984375 6.296875 -4.484375 C 6.078125 -3.992188 5.898438 -3.546875 5.765625 -3.140625 C 5.242188 -1.578125 5.320312 -0.796875 6 -0.796875 C 6.863281 -0.796875 8.140625 -2.507812 9.828125 -5.9375 C 9.972656 -6.207031 10.085938 -6.3125 10.171875 -6.25 C 10.265625 -6.1875 10.3125 -6.109375 10.3125 -6.015625 C 10.3125 -5.921875 10.175781 -5.601562 9.90625 -5.0625 C 9.644531 -4.519531 9.359375 -3.960938 9.046875 -3.390625 C 8.742188 -2.816406 8.265625 -2.148438 7.609375 -1.390625 C 6.828125 -0.441406 6.078125 0.03125 5.359375 0.03125 C 4.554688 0.03125 4.003906 -0.453125 3.703125 -1.421875 C 3.640625 -1.597656 3.609375 -1.867188 3.609375 -2.234375 C 3.609375 -2.609375 3.722656 -3.101562 3.953125 -3.71875 C 4.191406 -4.34375 4.566406 -5.09375 5.078125 -5.96875 C 5.597656 -6.851562 5.882812 -7.375 5.9375 -7.53125 C 6 -7.6875 6.03125 -7.832031 6.03125 -7.96875 C 6.03125 -8.613281 5.210938 -8.957031 3.578125 -9 L 3.203125 -8 C 1.910156 -4.613281 0.671875 -2.347656 -0.515625 -1.203125 C -0.722656 -1.015625 -0.828125 -1.078125 -0.828125 -1.390625 C -0.828125 -1.453125 -0.804688 -1.519531 -0.765625 -1.59375 C 0.378906 -3.113281 1.375 -4.910156 2.21875 -6.984375 C 3.0625 -9.054688 3.644531 -11.03125 3.96875 -12.90625 C 4.09375 -13.539062 4.378906 -13.859375 4.828125 -13.859375 C 5.285156 -13.859375 5.617188 -13.570312 5.828125 -13 C 5.878906 -12.8125 5.90625 -12.59375 5.90625 -12.34375 Z M 5.90625 -12.34375 " />
            </g>
        </g>
    </g>
    <g fill="#00ffff" fill-opacity="1">
        <g transform="translate(149.778439, 29.535557)">
            <g>
                <path
                    d="M 5.90625 -12.34375 C 5.90625 -11.425781 5.320312 -10.554688 4.15625 -9.734375 C 4.570312 -9.710938 5.125 -9.703125 5.8125 -9.703125 C 6.5 -9.703125 7.363281 -9.753906 8.40625 -9.859375 C 8.445312 -9.796875 8.46875 -9.628906 8.46875 -9.359375 C 8.46875 -9.097656 8.34375 -8.703125 8.09375 -8.171875 C 7.851562 -7.648438 7.632812 -7.195312 7.4375 -6.8125 C 7.238281 -6.4375 7.050781 -6.078125 6.875 -5.734375 C 6.707031 -5.398438 6.515625 -4.984375 6.296875 -4.484375 C 6.078125 -3.992188 5.898438 -3.546875 5.765625 -3.140625 C 5.242188 -1.578125 5.320312 -0.796875 6 -0.796875 C 6.863281 -0.796875 8.140625 -2.507812 9.828125 -5.9375 C 9.972656 -6.207031 10.085938 -6.3125 10.171875 -6.25 C 10.265625 -6.1875 10.3125 -6.109375 10.3125 -6.015625 C 10.3125 -5.921875 10.175781 -5.601562 9.90625 -5.0625 C 9.644531 -4.519531 9.359375 -3.960938 9.046875 -3.390625 C 8.742188 -2.816406 8.265625 -2.148438 7.609375 -1.390625 C 6.828125 -0.441406 6.078125 0.03125 5.359375 0.03125 C 4.554688 0.03125 4.003906 -0.453125 3.703125 -1.421875 C 3.640625 -1.597656 3.609375 -1.867188 3.609375 -2.234375 C 3.609375 -2.609375 3.722656 -3.101562 3.953125 -3.71875 C 4.191406 -4.34375 4.566406 -5.09375 5.078125 -5.96875 C 5.597656 -6.851562 5.882812 -7.375 5.9375 -7.53125 C 6 -7.6875 6.03125 -7.832031 6.03125 -7.96875 C 6.03125 -8.613281 5.210938 -8.957031 3.578125 -9 L 3.203125 -8 C 1.910156 -4.613281 0.671875 -2.347656 -0.515625 -1.203125 C -0.722656 -1.015625 -0.828125 -1.078125 -0.828125 -1.390625 C -0.828125 -1.453125 -0.804688 -1.519531 -0.765625 -1.59375 C 0.378906 -3.113281 1.375 -4.910156 2.21875 -6.984375 C 3.0625 -9.054688 3.644531 -11.03125 3.96875 -12.90625 C 4.09375 -13.539062 4.378906 -13.859375 4.828125 -13.859375 C 5.285156 -13.859375 5.617188 -13.570312 5.828125 -13 C 5.878906 -12.8125 5.90625 -12.59375 5.90625 -12.34375 Z M 5.90625 -12.34375 " />
            </g>
        </g>
    </g>
    <g fill="#03989e" fill-opacity="1">
        <g transform="translate(149.233133, 29.292771)">
            <g>
                <path
                    d="M 5.90625 -12.34375 C 5.90625 -11.425781 5.320312 -10.554688 4.15625 -9.734375 C 4.570312 -9.710938 5.125 -9.703125 5.8125 -9.703125 C 6.5 -9.703125 7.363281 -9.753906 8.40625 -9.859375 C 8.445312 -9.796875 8.46875 -9.628906 8.46875 -9.359375 C 8.46875 -9.097656 8.34375 -8.703125 8.09375 -8.171875 C 7.851562 -7.648438 7.632812 -7.195312 7.4375 -6.8125 C 7.238281 -6.4375 7.050781 -6.078125 6.875 -5.734375 C 6.707031 -5.398438 6.515625 -4.984375 6.296875 -4.484375 C 6.078125 -3.992188 5.898438 -3.546875 5.765625 -3.140625 C 5.242188 -1.578125 5.320312 -0.796875 6 -0.796875 C 6.863281 -0.796875 8.140625 -2.507812 9.828125 -5.9375 C 9.972656 -6.207031 10.085938 -6.3125 10.171875 -6.25 C 10.265625 -6.1875 10.3125 -6.109375 10.3125 -6.015625 C 10.3125 -5.921875 10.175781 -5.601562 9.90625 -5.0625 C 9.644531 -4.519531 9.359375 -3.960938 9.046875 -3.390625 C 8.742188 -2.816406 8.265625 -2.148438 7.609375 -1.390625 C 6.828125 -0.441406 6.078125 0.03125 5.359375 0.03125 C 4.554688 0.03125 4.003906 -0.453125 3.703125 -1.421875 C 3.640625 -1.597656 3.609375 -1.867188 3.609375 -2.234375 C 3.609375 -2.609375 3.722656 -3.101562 3.953125 -3.71875 C 4.191406 -4.34375 4.566406 -5.09375 5.078125 -5.96875 C 5.597656 -6.851562 5.882812 -7.375 5.9375 -7.53125 C 6 -7.6875 6.03125 -7.832031 6.03125 -7.96875 C 6.03125 -8.613281 5.210938 -8.957031 3.578125 -9 L 3.203125 -8 C 1.910156 -4.613281 0.671875 -2.347656 -0.515625 -1.203125 C -0.722656 -1.015625 -0.828125 -1.078125 -0.828125 -1.390625 C -0.828125 -1.453125 -0.804688 -1.519531 -0.765625 -1.59375 C 0.378906 -3.113281 1.375 -4.910156 2.21875 -6.984375 C 3.0625 -9.054688 3.644531 -11.03125 3.96875 -12.90625 C 4.09375 -13.539062 4.378906 -13.859375 4.828125 -13.859375 C 5.285156 -13.859375 5.617188 -13.570312 5.828125 -13 C 5.878906 -12.8125 5.90625 -12.59375 5.90625 -12.34375 Z M 5.90625 -12.34375 " />
            </g>
        </g>
    </g>
    <g fill="#ff00ff" fill-opacity="1">
        <g transform="translate(159.586263, 29.049986)">
            <g>
                <path
                    d="M 11.125 -8.34375 C 10.75 -7.976562 10.222656 -7.140625 9.546875 -5.828125 C 8.867188 -4.523438 8.460938 -3.550781 8.328125 -2.90625 C 8.191406 -2.257812 8.125 -1.734375 8.125 -1.328125 C 8.125 -0.929688 8.28125 -0.734375 8.59375 -0.734375 C 8.976562 -0.734375 9.460938 -1.09375 10.046875 -1.8125 C 10.878906 -2.863281 11.707031 -4.226562 12.53125 -5.90625 C 12.613281 -6.09375 12.707031 -6.195312 12.8125 -6.21875 C 12.976562 -6.28125 13.0625 -6.21875 13.0625 -6.03125 C 13.0625 -5.925781 13.03125 -5.804688 12.96875 -5.671875 C 11.070312 -1.847656 9.476562 0.0625 8.1875 0.0625 C 7.59375 0.0625 7.113281 -0.222656 6.75 -0.796875 C 6.5625 -1.109375 6.46875 -1.519531 6.46875 -2.03125 C 6.46875 -2.539062 6.570312 -3.164062 6.78125 -3.90625 C 5.132812 -1.257812 3.71875 0.0625 2.53125 0.0625 C 2.195312 0.0625 1.894531 -0.0390625 1.625 -0.25 C 1.007812 -0.675781 0.703125 -1.414062 0.703125 -2.46875 C 0.703125 -4.476562 1.578125 -6.519531 3.328125 -8.59375 C 4.304688 -9.738281 5.515625 -10.488281 6.953125 -10.84375 C 7.347656 -10.945312 7.71875 -11 8.0625 -11 C 9.007812 -11 9.8125 -10.671875 10.46875 -10.015625 C 10.675781 -9.785156 10.738281 -9.566406 10.65625 -9.359375 C 10.570312 -9.148438 10.394531 -9.066406 10.125 -9.109375 C 9.90625 -9.847656 9.414062 -10.21875 8.65625 -10.21875 C 7.769531 -10.21875 6.679688 -9.519531 5.390625 -8.125 C 4.648438 -7.3125 3.960938 -6.347656 3.328125 -5.234375 C 2.523438 -3.898438 2.125 -2.832031 2.125 -2.03125 C 2.125 -1.226562 2.378906 -0.828125 2.890625 -0.828125 C 4.128906 -0.828125 5.742188 -2.71875 7.734375 -6.5 C 8.117188 -7.257812 8.441406 -7.773438 8.703125 -8.046875 C 8.972656 -8.328125 9.316406 -8.46875 9.734375 -8.46875 C 9.816406 -8.46875 10.023438 -8.4375 10.359375 -8.375 C 10.703125 -8.3125 10.957031 -8.300781 11.125 -8.34375 Z M 11.125 -8.34375 " />
            </g>
        </g>
    </g>
    <g fill="#00ffff" fill-opacity="1">
        <g transform="translate(160.676875, 29.535557)">
            <g>
                <path
                    d="M 11.125 -8.34375 C 10.75 -7.976562 10.222656 -7.140625 9.546875 -5.828125 C 8.867188 -4.523438 8.460938 -3.550781 8.328125 -2.90625 C 8.191406 -2.257812 8.125 -1.734375 8.125 -1.328125 C 8.125 -0.929688 8.28125 -0.734375 8.59375 -0.734375 C 8.976562 -0.734375 9.460938 -1.09375 10.046875 -1.8125 C 10.878906 -2.863281 11.707031 -4.226562 12.53125 -5.90625 C 12.613281 -6.09375 12.707031 -6.195312 12.8125 -6.21875 C 12.976562 -6.28125 13.0625 -6.21875 13.0625 -6.03125 C 13.0625 -5.925781 13.03125 -5.804688 12.96875 -5.671875 C 11.070312 -1.847656 9.476562 0.0625 8.1875 0.0625 C 7.59375 0.0625 7.113281 -0.222656 6.75 -0.796875 C 6.5625 -1.109375 6.46875 -1.519531 6.46875 -2.03125 C 6.46875 -2.539062 6.570312 -3.164062 6.78125 -3.90625 C 5.132812 -1.257812 3.71875 0.0625 2.53125 0.0625 C 2.195312 0.0625 1.894531 -0.0390625 1.625 -0.25 C 1.007812 -0.675781 0.703125 -1.414062 0.703125 -2.46875 C 0.703125 -4.476562 1.578125 -6.519531 3.328125 -8.59375 C 4.304688 -9.738281 5.515625 -10.488281 6.953125 -10.84375 C 7.347656 -10.945312 7.71875 -11 8.0625 -11 C 9.007812 -11 9.8125 -10.671875 10.46875 -10.015625 C 10.675781 -9.785156 10.738281 -9.566406 10.65625 -9.359375 C 10.570312 -9.148438 10.394531 -9.066406 10.125 -9.109375 C 9.90625 -9.847656 9.414062 -10.21875 8.65625 -10.21875 C 7.769531 -10.21875 6.679688 -9.519531 5.390625 -8.125 C 4.648438 -7.3125 3.960938 -6.347656 3.328125 -5.234375 C 2.523438 -3.898438 2.125 -2.832031 2.125 -2.03125 C 2.125 -1.226562 2.378906 -0.828125 2.890625 -0.828125 C 4.128906 -0.828125 5.742188 -2.71875 7.734375 -6.5 C 8.117188 -7.257812 8.441406 -7.773438 8.703125 -8.046875 C 8.972656 -8.328125 9.316406 -8.46875 9.734375 -8.46875 C 9.816406 -8.46875 10.023438 -8.4375 10.359375 -8.375 C 10.703125 -8.3125 10.957031 -8.300781 11.125 -8.34375 Z M 11.125 -8.34375 " />
            </g>
        </g>
    </g>
    <g fill="#00c2cb" fill-opacity="1">
        <g transform="translate(160.131569, 29.292771)">
            <g>
                <path
                    d="M 11.125 -8.34375 C 10.75 -7.976562 10.222656 -7.140625 9.546875 -5.828125 C 8.867188 -4.523438 8.460938 -3.550781 8.328125 -2.90625 C 8.191406 -2.257812 8.125 -1.734375 8.125 -1.328125 C 8.125 -0.929688 8.28125 -0.734375 8.59375 -0.734375 C 8.976562 -0.734375 9.460938 -1.09375 10.046875 -1.8125 C 10.878906 -2.863281 11.707031 -4.226562 12.53125 -5.90625 C 12.613281 -6.09375 12.707031 -6.195312 12.8125 -6.21875 C 12.976562 -6.28125 13.0625 -6.21875 13.0625 -6.03125 C 13.0625 -5.925781 13.03125 -5.804688 12.96875 -5.671875 C 11.070312 -1.847656 9.476562 0.0625 8.1875 0.0625 C 7.59375 0.0625 7.113281 -0.222656 6.75 -0.796875 C 6.5625 -1.109375 6.46875 -1.519531 6.46875 -2.03125 C 6.46875 -2.539062 6.570312 -3.164062 6.78125 -3.90625 C 5.132812 -1.257812 3.71875 0.0625 2.53125 0.0625 C 2.195312 0.0625 1.894531 -0.0390625 1.625 -0.25 C 1.007812 -0.675781 0.703125 -1.414062 0.703125 -2.46875 C 0.703125 -4.476562 1.578125 -6.519531 3.328125 -8.59375 C 4.304688 -9.738281 5.515625 -10.488281 6.953125 -10.84375 C 7.347656 -10.945312 7.71875 -11 8.0625 -11 C 9.007812 -11 9.8125 -10.671875 10.46875 -10.015625 C 10.675781 -9.785156 10.738281 -9.566406 10.65625 -9.359375 C 10.570312 -9.148438 10.394531 -9.066406 10.125 -9.109375 C 9.90625 -9.847656 9.414062 -10.21875 8.65625 -10.21875 C 7.769531 -10.21875 6.679688 -9.519531 5.390625 -8.125 C 4.648438 -7.3125 3.960938 -6.347656 3.328125 -5.234375 C 2.523438 -3.898438 2.125 -2.832031 2.125 -2.03125 C 2.125 -1.226562 2.378906 -0.828125 2.890625 -0.828125 C 4.128906 -0.828125 5.742188 -2.71875 7.734375 -6.5 C 8.117188 -7.257812 8.441406 -7.773438 8.703125 -8.046875 C 8.972656 -8.328125 9.316406 -8.46875 9.734375 -8.46875 C 9.816406 -8.46875 10.023438 -8.4375 10.359375 -8.375 C 10.703125 -8.3125 10.957031 -8.300781 11.125 -8.34375 Z M 11.125 -8.34375 " />
            </g>
        </g>
    </g>
    <g fill="#ff00ff" fill-opacity="1">
        <g transform="translate(173.250324, 29.049986)">
            <g>
                <path
                    d="M 16.328125 -10.09375 C 13.816406 -5.644531 12.5625 -2.773438 12.5625 -1.484375 C 12.5625 -0.898438 12.757812 -0.609375 13.15625 -0.609375 C 13.644531 -0.609375 14.207031 -0.976562 14.84375 -1.71875 C 15.8125 -2.894531 16.65625 -4.300781 17.375 -5.9375 C 17.488281 -6.226562 17.609375 -6.34375 17.734375 -6.28125 C 17.859375 -6.21875 17.921875 -6.132812 17.921875 -6.03125 C 17.921875 -5.925781 17.816406 -5.671875 17.609375 -5.265625 C 17.410156 -4.859375 17.25 -4.53125 17.125 -4.28125 C 17 -4.03125 16.722656 -3.554688 16.296875 -2.859375 C 15.878906 -2.160156 15.519531 -1.644531 15.21875 -1.3125 C 14.925781 -0.988281 14.546875 -0.664062 14.078125 -0.34375 C 13.617188 -0.03125 13.097656 0.125 12.515625 0.125 C 11.929688 0.125 11.4375 -0.160156 11.03125 -0.734375 C 10.84375 -1.003906 10.75 -1.367188 10.75 -1.828125 C 10.75 -2.296875 10.847656 -2.859375 11.046875 -3.515625 C 11.253906 -4.171875 11.820312 -5.238281 12.75 -6.71875 C 12.976562 -7.082031 13.09375 -7.375 13.09375 -7.59375 C 13.09375 -7.8125 12.921875 -7.921875 12.578125 -7.921875 C 12.242188 -7.921875 11.632812 -7.507812 10.75 -6.6875 C 9.863281 -5.863281 8.929688 -4.753906 7.953125 -3.359375 C 6.984375 -1.960938 6.40625 -0.84375 6.21875 0 C 5.875 0 5.617188 -0.140625 5.453125 -0.421875 C 5.285156 -0.710938 5.203125 -0.960938 5.203125 -1.171875 C 5.203125 -2.015625 5.769531 -3.613281 6.90625 -5.96875 C 7.269531 -6.75 7.460938 -7.273438 7.484375 -7.546875 C 7.503906 -7.828125 7.46875 -7.972656 7.375 -7.984375 C 7.28125 -7.992188 7.148438 -7.960938 6.984375 -7.890625 C 6.617188 -7.703125 6.054688 -7.25 5.296875 -6.53125 C 3.859375 -5.21875 2.441406 -3.21875 1.046875 -0.53125 C 0.941406 -0.300781 0.8125 -0.160156 0.65625 -0.109375 C 0.507812 -0.0546875 0.210938 -0.0195312 -0.234375 0 C -0.691406 0.0195312 -0.992188 0.0703125 -1.140625 0.15625 C -0.765625 -0.5625 -0.117188 -1.90625 0.796875 -3.875 C 2.460938 -7.40625 3.570312 -9.441406 4.125 -9.984375 C 4.375 -10.222656 4.710938 -10.34375 5.140625 -10.34375 C 5.222656 -10.34375 5.429688 -10.3125 5.765625 -10.25 C 6.109375 -10.1875 6.363281 -10.175781 6.53125 -10.21875 C 5.769531 -9.8125 4.523438 -7.882812 2.796875 -4.4375 C 3.765625 -5.625 4.457031 -6.398438 4.875 -6.765625 C 5.300781 -7.140625 5.613281 -7.421875 5.8125 -7.609375 C 6.019531 -7.796875 6.179688 -7.9375 6.296875 -8.03125 C 6.410156 -8.132812 6.570312 -8.285156 6.78125 -8.484375 C 7 -8.679688 7.164062 -8.820312 7.28125 -8.90625 C 7.394531 -9 7.550781 -9.128906 7.75 -9.296875 C 7.957031 -9.460938 8.117188 -9.570312 8.234375 -9.625 C 8.347656 -9.675781 8.503906 -9.765625 8.703125 -9.890625 C 8.898438 -10.015625 9.039062 -10.078125 9.125 -10.078125 C 9.21875 -10.078125 9.347656 -10.097656 9.515625 -10.140625 C 9.679688 -10.191406 9.796875 -10.175781 9.859375 -10.09375 C 10.265625 -9.9375 10.46875 -9.679688 10.46875 -9.328125 C 10.46875 -9.023438 10.117188 -8.234375 9.421875 -6.953125 C 8.722656 -5.679688 8.269531 -4.84375 8.0625 -4.4375 C 8.96875 -5.5625 9.832031 -6.488281 10.65625 -7.21875 C 11.476562 -7.945312 12.445312 -8.617188 13.5625 -9.234375 C 14.6875 -9.847656 15.503906 -10.15625 16.015625 -10.15625 C 16.140625 -10.15625 16.242188 -10.132812 16.328125 -10.09375 Z M 16.328125 -10.09375 " />
            </g>
        </g>
    </g>
    <g fill="#00ffff" fill-opacity="1">
        <g transform="translate(174.340935, 29.535557)">
            <g>
                <path
                    d="M 16.328125 -10.09375 C 13.816406 -5.644531 12.5625 -2.773438 12.5625 -1.484375 C 12.5625 -0.898438 12.757812 -0.609375 13.15625 -0.609375 C 13.644531 -0.609375 14.207031 -0.976562 14.84375 -1.71875 C 15.8125 -2.894531 16.65625 -4.300781 17.375 -5.9375 C 17.488281 -6.226562 17.609375 -6.34375 17.734375 -6.28125 C 17.859375 -6.21875 17.921875 -6.132812 17.921875 -6.03125 C 17.921875 -5.925781 17.816406 -5.671875 17.609375 -5.265625 C 17.410156 -4.859375 17.25 -4.53125 17.125 -4.28125 C 17 -4.03125 16.722656 -3.554688 16.296875 -2.859375 C 15.878906 -2.160156 15.519531 -1.644531 15.21875 -1.3125 C 14.925781 -0.988281 14.546875 -0.664062 14.078125 -0.34375 C 13.617188 -0.03125 13.097656 0.125 12.515625 0.125 C 11.929688 0.125 11.4375 -0.160156 11.03125 -0.734375 C 10.84375 -1.003906 10.75 -1.367188 10.75 -1.828125 C 10.75 -2.296875 10.847656 -2.859375 11.046875 -3.515625 C 11.253906 -4.171875 11.820312 -5.238281 12.75 -6.71875 C 12.976562 -7.082031 13.09375 -7.375 13.09375 -7.59375 C 13.09375 -7.8125 12.921875 -7.921875 12.578125 -7.921875 C 12.242188 -7.921875 11.632812 -7.507812 10.75 -6.6875 C 9.863281 -5.863281 8.929688 -4.753906 7.953125 -3.359375 C 6.984375 -1.960938 6.40625 -0.84375 6.21875 0 C 5.875 0 5.617188 -0.140625 5.453125 -0.421875 C 5.285156 -0.710938 5.203125 -0.960938 5.203125 -1.171875 C 5.203125 -2.015625 5.769531 -3.613281 6.90625 -5.96875 C 7.269531 -6.75 7.460938 -7.273438 7.484375 -7.546875 C 7.503906 -7.828125 7.46875 -7.972656 7.375 -7.984375 C 7.28125 -7.992188 7.148438 -7.960938 6.984375 -7.890625 C 6.617188 -7.703125 6.054688 -7.25 5.296875 -6.53125 C 3.859375 -5.21875 2.441406 -3.21875 1.046875 -0.53125 C 0.941406 -0.300781 0.8125 -0.160156 0.65625 -0.109375 C 0.507812 -0.0546875 0.210938 -0.0195312 -0.234375 0 C -0.691406 0.0195312 -0.992188 0.0703125 -1.140625 0.15625 C -0.765625 -0.5625 -0.117188 -1.90625 0.796875 -3.875 C 2.460938 -7.40625 3.570312 -9.441406 4.125 -9.984375 C 4.375 -10.222656 4.710938 -10.34375 5.140625 -10.34375 C 5.222656 -10.34375 5.429688 -10.3125 5.765625 -10.25 C 6.109375 -10.1875 6.363281 -10.175781 6.53125 -10.21875 C 5.769531 -9.8125 4.523438 -7.882812 2.796875 -4.4375 C 3.765625 -5.625 4.457031 -6.398438 4.875 -6.765625 C 5.300781 -7.140625 5.613281 -7.421875 5.8125 -7.609375 C 6.019531 -7.796875 6.179688 -7.9375 6.296875 -8.03125 C 6.410156 -8.132812 6.570312 -8.285156 6.78125 -8.484375 C 7 -8.679688 7.164062 -8.820312 7.28125 -8.90625 C 7.394531 -9 7.550781 -9.128906 7.75 -9.296875 C 7.957031 -9.460938 8.117188 -9.570312 8.234375 -9.625 C 8.347656 -9.675781 8.503906 -9.765625 8.703125 -9.890625 C 8.898438 -10.015625 9.039062 -10.078125 9.125 -10.078125 C 9.21875 -10.078125 9.347656 -10.097656 9.515625 -10.140625 C 9.679688 -10.191406 9.796875 -10.175781 9.859375 -10.09375 C 10.265625 -9.9375 10.46875 -9.679688 10.46875 -9.328125 C 10.46875 -9.023438 10.117188 -8.234375 9.421875 -6.953125 C 8.722656 -5.679688 8.269531 -4.84375 8.0625 -4.4375 C 8.96875 -5.5625 9.832031 -6.488281 10.65625 -7.21875 C 11.476562 -7.945312 12.445312 -8.617188 13.5625 -9.234375 C 14.6875 -9.847656 15.503906 -10.15625 16.015625 -10.15625 C 16.140625 -10.15625 16.242188 -10.132812 16.328125 -10.09375 Z M 16.328125 -10.09375 " />
            </g>
        </g>
    </g>
    <g fill="#5ce1e6" fill-opacity="1">
        <g transform="translate(173.79563, 29.292771)">
            <g>
                <path
                    d="M 16.328125 -10.09375 C 13.816406 -5.644531 12.5625 -2.773438 12.5625 -1.484375 C 12.5625 -0.898438 12.757812 -0.609375 13.15625 -0.609375 C 13.644531 -0.609375 14.207031 -0.976562 14.84375 -1.71875 C 15.8125 -2.894531 16.65625 -4.300781 17.375 -5.9375 C 17.488281 -6.226562 17.609375 -6.34375 17.734375 -6.28125 C 17.859375 -6.21875 17.921875 -6.132812 17.921875 -6.03125 C 17.921875 -5.925781 17.816406 -5.671875 17.609375 -5.265625 C 17.410156 -4.859375 17.25 -4.53125 17.125 -4.28125 C 17 -4.03125 16.722656 -3.554688 16.296875 -2.859375 C 15.878906 -2.160156 15.519531 -1.644531 15.21875 -1.3125 C 14.925781 -0.988281 14.546875 -0.664062 14.078125 -0.34375 C 13.617188 -0.03125 13.097656 0.125 12.515625 0.125 C 11.929688 0.125 11.4375 -0.160156 11.03125 -0.734375 C 10.84375 -1.003906 10.75 -1.367188 10.75 -1.828125 C 10.75 -2.296875 10.847656 -2.859375 11.046875 -3.515625 C 11.253906 -4.171875 11.820312 -5.238281 12.75 -6.71875 C 12.976562 -7.082031 13.09375 -7.375 13.09375 -7.59375 C 13.09375 -7.8125 12.921875 -7.921875 12.578125 -7.921875 C 12.242188 -7.921875 11.632812 -7.507812 10.75 -6.6875 C 9.863281 -5.863281 8.929688 -4.753906 7.953125 -3.359375 C 6.984375 -1.960938 6.40625 -0.84375 6.21875 0 C 5.875 0 5.617188 -0.140625 5.453125 -0.421875 C 5.285156 -0.710938 5.203125 -0.960938 5.203125 -1.171875 C 5.203125 -2.015625 5.769531 -3.613281 6.90625 -5.96875 C 7.269531 -6.75 7.460938 -7.273438 7.484375 -7.546875 C 7.503906 -7.828125 7.46875 -7.972656 7.375 -7.984375 C 7.28125 -7.992188 7.148438 -7.960938 6.984375 -7.890625 C 6.617188 -7.703125 6.054688 -7.25 5.296875 -6.53125 C 3.859375 -5.21875 2.441406 -3.21875 1.046875 -0.53125 C 0.941406 -0.300781 0.8125 -0.160156 0.65625 -0.109375 C 0.507812 -0.0546875 0.210938 -0.0195312 -0.234375 0 C -0.691406 0.0195312 -0.992188 0.0703125 -1.140625 0.15625 C -0.765625 -0.5625 -0.117188 -1.90625 0.796875 -3.875 C 2.460938 -7.40625 3.570312 -9.441406 4.125 -9.984375 C 4.375 -10.222656 4.710938 -10.34375 5.140625 -10.34375 C 5.222656 -10.34375 5.429688 -10.3125 5.765625 -10.25 C 6.109375 -10.1875 6.363281 -10.175781 6.53125 -10.21875 C 5.769531 -9.8125 4.523438 -7.882812 2.796875 -4.4375 C 3.765625 -5.625 4.457031 -6.398438 4.875 -6.765625 C 5.300781 -7.140625 5.613281 -7.421875 5.8125 -7.609375 C 6.019531 -7.796875 6.179688 -7.9375 6.296875 -8.03125 C 6.410156 -8.132812 6.570312 -8.285156 6.78125 -8.484375 C 7 -8.679688 7.164062 -8.820312 7.28125 -8.90625 C 7.394531 -9 7.550781 -9.128906 7.75 -9.296875 C 7.957031 -9.460938 8.117188 -9.570312 8.234375 -9.625 C 8.347656 -9.675781 8.503906 -9.765625 8.703125 -9.890625 C 8.898438 -10.015625 9.039062 -10.078125 9.125 -10.078125 C 9.21875 -10.078125 9.347656 -10.097656 9.515625 -10.140625 C 9.679688 -10.191406 9.796875 -10.175781 9.859375 -10.09375 C 10.265625 -9.9375 10.46875 -9.679688 10.46875 -9.328125 C 10.46875 -9.023438 10.117188 -8.234375 9.421875 -6.953125 C 8.722656 -5.679688 8.269531 -4.84375 8.0625 -4.4375 C 8.96875 -5.5625 9.832031 -6.488281 10.65625 -7.21875 C 11.476562 -7.945312 12.445312 -8.617188 13.5625 -9.234375 C 14.6875 -9.847656 15.503906 -10.15625 16.015625 -10.15625 C 16.140625 -10.15625 16.242188 -10.132812 16.328125 -10.09375 Z M 16.328125 -10.09375 " />
            </g>
        </g>
    </g>
    <g fill="#ff00ff" fill-opacity="1">
        <g transform="translate(191.754224, 29.049986)">
            <g>
                <path
                    d="M 4.40625 -0.578125 C 4.675781 -0.546875 4.859375 -0.53125 4.953125 -0.53125 C 5.773438 -0.53125 6.585938 -1.007812 7.390625 -1.96875 C 7.816406 -2.5 8.585938 -3.84375 9.703125 -6 C 9.742188 -6.101562 9.816406 -6.15625 9.921875 -6.15625 C 10.097656 -6.175781 10.1875 -6.101562 10.1875 -5.9375 C 10.1875 -5.894531 10.140625 -5.773438 10.046875 -5.578125 C 9.960938 -5.390625 9.878906 -5.195312 9.796875 -5 C 9.710938 -4.8125 9.578125 -4.53125 9.390625 -4.15625 C 9.203125 -3.789062 9.039062 -3.492188 8.90625 -3.265625 C 8.78125 -3.035156 8.613281 -2.753906 8.40625 -2.421875 C 8.195312 -2.097656 7.992188 -1.84375 7.796875 -1.65625 L 7.140625 -0.984375 C 6.796875 -0.640625 6.382812 -0.394531 5.90625 -0.25 C 5.15625 0 4.421875 0.0195312 3.703125 -0.1875 C 3.222656 0.0195312 2.800781 0.125 2.4375 0.125 C 0.976562 0.125 0.09375 -0.445312 -0.21875 -1.59375 C -0.28125 -1.863281 -0.3125 -2.1875 -0.3125 -2.5625 C -0.3125 -2.945312 -0.179688 -3.3125 0.078125 -3.65625 C 0.335938 -4.007812 0.609375 -4.195312 0.890625 -4.21875 C 1.941406 -6.207031 2.835938 -8.003906 3.578125 -9.609375 C 4.398438 -11.347656 5.351562 -12.21875 6.4375 -12.21875 C 6.726562 -12.21875 7.007812 -12.148438 7.28125 -12.015625 C 7.5625 -11.890625 7.664062 -11.742188 7.59375 -11.578125 C 7.519531 -11.410156 7.367188 -11.378906 7.140625 -11.484375 C 6.921875 -11.585938 6.726562 -11.640625 6.5625 -11.640625 C 6.394531 -11.640625 6.25 -11.609375 6.125 -11.546875 C 5.425781 -11.222656 5.078125 -10.515625 5.078125 -9.421875 C 5.078125 -8.847656 5.160156 -8.375 5.328125 -8 C 5.492188 -7.632812 5.675781 -7.238281 5.875 -6.8125 C 6.351562 -5.738281 6.59375 -4.863281 6.59375 -4.1875 C 6.59375 -3.507812 6.375 -2.84375 5.9375 -2.1875 C 5.507812 -1.53125 5 -0.992188 4.40625 -0.578125 Z M 3.359375 -0.796875 C 4.265625 -1.492188 4.71875 -2.625 4.71875 -4.1875 C 4.71875 -4.820312 4.644531 -5.691406 4.5 -6.796875 C 4.351562 -7.910156 4.28125 -8.660156 4.28125 -9.046875 C 4.28125 -9.441406 4.289062 -9.710938 4.3125 -9.859375 C 2.75 -6.734375 1.785156 -4.832031 1.421875 -4.15625 C 1.847656 -4.15625 2.0625 -3.847656 2.0625 -3.234375 C 2.0625 -2.023438 2.492188 -1.210938 3.359375 -0.796875 Z M 1.046875 -1.625 C 1.046875 -1.507812 1.054688 -1.378906 1.078125 -1.234375 C 1.242188 -0.679688 1.625 -0.40625 2.21875 -0.40625 C 2.46875 -0.40625 2.671875 -0.445312 2.828125 -0.53125 C 2.066406 -1 1.660156 -1.765625 1.609375 -2.828125 C 1.234375 -2.460938 1.046875 -2.0625 1.046875 -1.625 Z M 1.046875 -1.625 " />
            </g>
        </g>
    </g>
    <g fill="#00ffff" fill-opacity="1">
        <g transform="translate(192.844836, 29.535557)">
            <g>
                <path
                    d="M 4.40625 -0.578125 C 4.675781 -0.546875 4.859375 -0.53125 4.953125 -0.53125 C 5.773438 -0.53125 6.585938 -1.007812 7.390625 -1.96875 C 7.816406 -2.5 8.585938 -3.84375 9.703125 -6 C 9.742188 -6.101562 9.816406 -6.15625 9.921875 -6.15625 C 10.097656 -6.175781 10.1875 -6.101562 10.1875 -5.9375 C 10.1875 -5.894531 10.140625 -5.773438 10.046875 -5.578125 C 9.960938 -5.390625 9.878906 -5.195312 9.796875 -5 C 9.710938 -4.8125 9.578125 -4.53125 9.390625 -4.15625 C 9.203125 -3.789062 9.039062 -3.492188 8.90625 -3.265625 C 8.78125 -3.035156 8.613281 -2.753906 8.40625 -2.421875 C 8.195312 -2.097656 7.992188 -1.84375 7.796875 -1.65625 L 7.140625 -0.984375 C 6.796875 -0.640625 6.382812 -0.394531 5.90625 -0.25 C 5.15625 0 4.421875 0.0195312 3.703125 -0.1875 C 3.222656 0.0195312 2.800781 0.125 2.4375 0.125 C 0.976562 0.125 0.09375 -0.445312 -0.21875 -1.59375 C -0.28125 -1.863281 -0.3125 -2.1875 -0.3125 -2.5625 C -0.3125 -2.945312 -0.179688 -3.3125 0.078125 -3.65625 C 0.335938 -4.007812 0.609375 -4.195312 0.890625 -4.21875 C 1.941406 -6.207031 2.835938 -8.003906 3.578125 -9.609375 C 4.398438 -11.347656 5.351562 -12.21875 6.4375 -12.21875 C 6.726562 -12.21875 7.007812 -12.148438 7.28125 -12.015625 C 7.5625 -11.890625 7.664062 -11.742188 7.59375 -11.578125 C 7.519531 -11.410156 7.367188 -11.378906 7.140625 -11.484375 C 6.921875 -11.585938 6.726562 -11.640625 6.5625 -11.640625 C 6.394531 -11.640625 6.25 -11.609375 6.125 -11.546875 C 5.425781 -11.222656 5.078125 -10.515625 5.078125 -9.421875 C 5.078125 -8.847656 5.160156 -8.375 5.328125 -8 C 5.492188 -7.632812 5.675781 -7.238281 5.875 -6.8125 C 6.351562 -5.738281 6.59375 -4.863281 6.59375 -4.1875 C 6.59375 -3.507812 6.375 -2.84375 5.9375 -2.1875 C 5.507812 -1.53125 5 -0.992188 4.40625 -0.578125 Z M 3.359375 -0.796875 C 4.265625 -1.492188 4.71875 -2.625 4.71875 -4.1875 C 4.71875 -4.820312 4.644531 -5.691406 4.5 -6.796875 C 4.351562 -7.910156 4.28125 -8.660156 4.28125 -9.046875 C 4.28125 -9.441406 4.289062 -9.710938 4.3125 -9.859375 C 2.75 -6.734375 1.785156 -4.832031 1.421875 -4.15625 C 1.847656 -4.15625 2.0625 -3.847656 2.0625 -3.234375 C 2.0625 -2.023438 2.492188 -1.210938 3.359375 -0.796875 Z M 1.046875 -1.625 C 1.046875 -1.507812 1.054688 -1.378906 1.078125 -1.234375 C 1.242188 -0.679688 1.625 -0.40625 2.21875 -0.40625 C 2.46875 -0.40625 2.671875 -0.445312 2.828125 -0.53125 C 2.066406 -1 1.660156 -1.765625 1.609375 -2.828125 C 1.234375 -2.460938 1.046875 -2.0625 1.046875 -1.625 Z M 1.046875 -1.625 " />
            </g>
        </g>
    </g>
    <g fill="#85e9ed" fill-opacity="1">
        <g transform="translate(192.29953, 29.292771)">
            <g>
                <path
                    d="M 4.40625 -0.578125 C 4.675781 -0.546875 4.859375 -0.53125 4.953125 -0.53125 C 5.773438 -0.53125 6.585938 -1.007812 7.390625 -1.96875 C 7.816406 -2.5 8.585938 -3.84375 9.703125 -6 C 9.742188 -6.101562 9.816406 -6.15625 9.921875 -6.15625 C 10.097656 -6.175781 10.1875 -6.101562 10.1875 -5.9375 C 10.1875 -5.894531 10.140625 -5.773438 10.046875 -5.578125 C 9.960938 -5.390625 9.878906 -5.195312 9.796875 -5 C 9.710938 -4.8125 9.578125 -4.53125 9.390625 -4.15625 C 9.203125 -3.789062 9.039062 -3.492188 8.90625 -3.265625 C 8.78125 -3.035156 8.613281 -2.753906 8.40625 -2.421875 C 8.195312 -2.097656 7.992188 -1.84375 7.796875 -1.65625 L 7.140625 -0.984375 C 6.796875 -0.640625 6.382812 -0.394531 5.90625 -0.25 C 5.15625 0 4.421875 0.0195312 3.703125 -0.1875 C 3.222656 0.0195312 2.800781 0.125 2.4375 0.125 C 0.976562 0.125 0.09375 -0.445312 -0.21875 -1.59375 C -0.28125 -1.863281 -0.3125 -2.1875 -0.3125 -2.5625 C -0.3125 -2.945312 -0.179688 -3.3125 0.078125 -3.65625 C 0.335938 -4.007812 0.609375 -4.195312 0.890625 -4.21875 C 1.941406 -6.207031 2.835938 -8.003906 3.578125 -9.609375 C 4.398438 -11.347656 5.351562 -12.21875 6.4375 -12.21875 C 6.726562 -12.21875 7.007812 -12.148438 7.28125 -12.015625 C 7.5625 -11.890625 7.664062 -11.742188 7.59375 -11.578125 C 7.519531 -11.410156 7.367188 -11.378906 7.140625 -11.484375 C 6.921875 -11.585938 6.726562 -11.640625 6.5625 -11.640625 C 6.394531 -11.640625 6.25 -11.609375 6.125 -11.546875 C 5.425781 -11.222656 5.078125 -10.515625 5.078125 -9.421875 C 5.078125 -8.847656 5.160156 -8.375 5.328125 -8 C 5.492188 -7.632812 5.675781 -7.238281 5.875 -6.8125 C 6.351562 -5.738281 6.59375 -4.863281 6.59375 -4.1875 C 6.59375 -3.507812 6.375 -2.84375 5.9375 -2.1875 C 5.507812 -1.53125 5 -0.992188 4.40625 -0.578125 Z M 3.359375 -0.796875 C 4.265625 -1.492188 4.71875 -2.625 4.71875 -4.1875 C 4.71875 -4.820312 4.644531 -5.691406 4.5 -6.796875 C 4.351562 -7.910156 4.28125 -8.660156 4.28125 -9.046875 C 4.28125 -9.441406 4.289062 -9.710938 4.3125 -9.859375 C 2.75 -6.734375 1.785156 -4.832031 1.421875 -4.15625 C 1.847656 -4.15625 2.0625 -3.847656 2.0625 -3.234375 C 2.0625 -2.023438 2.492188 -1.210938 3.359375 -0.796875 Z M 1.046875 -1.625 C 1.046875 -1.507812 1.054688 -1.378906 1.078125 -1.234375 C 1.242188 -0.679688 1.625 -0.40625 2.21875 -0.40625 C 2.46875 -0.40625 2.671875 -0.445312 2.828125 -0.53125 C 2.066406 -1 1.660156 -1.765625 1.609375 -2.828125 C 1.234375 -2.460938 1.046875 -2.0625 1.046875 -1.625 Z M 1.046875 -1.625 " />
            </g>
        </g>
    </g>
</svg>